<mxfile host="app.diagrams.net" modified="2023-08-28T18:24:02.896Z" agent="Mozilla/5.0 (Windows NT 10.0; Win64; x64) AppleWebKit/537.36 (KHTML, like Gecko) Chrome/116.0.0.0 Safari/537.36" etag="Q1nP12jwyvMwh44ZaZG3" version="21.6.9" type="device">
  <diagram name="Page-1" id="-jJVAcc0mzQapSOxZeDT">
    <mxGraphModel dx="1909" dy="1029" grid="0" gridSize="10" guides="1" tooltips="1" connect="1" arrows="1" fold="1" page="1" pageScale="1" pageWidth="1920" pageHeight="1200" math="0" shadow="0">
      <root>
        <mxCell id="0" />
        <mxCell id="1" parent="0" />
        <mxCell id="66zPg-nxCHK8hZNyKly8-73" value="" style="rounded=0;whiteSpace=wrap;html=1;" parent="1" vertex="1">
          <mxGeometry x="1374" y="159" width="264" height="150" as="geometry" />
        </mxCell>
        <mxCell id="66zPg-nxCHK8hZNyKly8-5" value="" style="group" parent="1" vertex="1" connectable="0">
          <mxGeometry x="50" y="350" width="160" height="300" as="geometry" />
        </mxCell>
        <mxCell id="66zPg-nxCHK8hZNyKly8-1" value="" style="dashed=0;outlineConnect=0;html=1;align=center;labelPosition=center;verticalLabelPosition=bottom;verticalAlign=top;shape=mxgraph.weblogos.android;fillColor=#A4CA39;strokeColor=none" parent="66zPg-nxCHK8hZNyKly8-5" vertex="1">
          <mxGeometry x="20" y="190" width="40" height="50" as="geometry" />
        </mxCell>
        <mxCell id="66zPg-nxCHK8hZNyKly8-2" value="" style="dashed=0;outlineConnect=0;html=1;align=center;labelPosition=center;verticalLabelPosition=bottom;verticalAlign=top;shape=mxgraph.weblogos.apple;fillColor=#1B1C1C;strokeColor=none" parent="66zPg-nxCHK8hZNyKly8-5" vertex="1">
          <mxGeometry x="110" y="189.99999999999994" width="35" height="46.2" as="geometry" />
        </mxCell>
        <mxCell id="66zPg-nxCHK8hZNyKly8-3" value="" style="shape=image;html=1;verticalAlign=top;verticalLabelPosition=bottom;labelBackgroundColor=default;imageAspect=0;aspect=fixed;image=https://cdn1.iconfinder.com/data/icons/ionicons-fill-vol-2/512/logo-react-128.png;imageBorder=none;fontColor=default;" parent="66zPg-nxCHK8hZNyKly8-5" vertex="1">
          <mxGeometry x="50" y="40" width="60" height="60" as="geometry" />
        </mxCell>
        <mxCell id="66zPg-nxCHK8hZNyKly8-4" value="" style="verticalLabelPosition=bottom;verticalAlign=top;html=1;shadow=0;dashed=0;strokeWidth=1;shape=mxgraph.android.phone2;strokeColor=#c0c0c0;" parent="66zPg-nxCHK8hZNyKly8-5" vertex="1">
          <mxGeometry width="160" height="300" as="geometry" />
        </mxCell>
        <mxCell id="66zPg-nxCHK8hZNyKly8-14" value="" style="group" parent="1" vertex="1" connectable="0">
          <mxGeometry x="584" y="37" width="108" height="350" as="geometry" />
        </mxCell>
        <mxCell id="66zPg-nxCHK8hZNyKly8-29" value="" style="rounded=0;whiteSpace=wrap;html=1;" parent="66zPg-nxCHK8hZNyKly8-14" vertex="1">
          <mxGeometry x="-2" y="-6" width="110" height="356" as="geometry" />
        </mxCell>
        <mxCell id="66zPg-nxCHK8hZNyKly8-7" value="" style="shape=image;verticalLabelPosition=bottom;labelBackgroundColor=default;verticalAlign=top;aspect=fixed;imageAspect=0;image=data:image/png,iVBORw0KGgoAAAANSUhEUgAAAEAAAABACAYAAACqaXHeAAAACXBIWXMAAAsTAAALEwEAmpwYAAAKP0lEQVR4nO2bW2wU1xnHLVWqBG1SVX1DkKSiUh+gb0nUPuVSqX1IUPOSSO1rgEYtkAUDNthgbDB3MGBsDOFaQggQLo4BA4JAUWNCzC1gwN7duex6Dca3vZ2z9uzM7L86a+94Zmdmd/YCNCpH+kn27uz5zvc/37l9M1NS8qK8KC9KpgLKzVAJ364SQUpQAeOIQCwdXwbEHHFeF2uLsW0MPolKeEkl3u9lwr2Xl/OJZEXplTtpbHYnRxteiCDORBiFg0w9H+QkgEr49kIdTzlp3UA7MomTqxDjIqjEez1HAYSoc+edhGW+OBEiuwgq4UhuAlD+prkB2QyPG/f0+fDx1X683hLE75pzg/1m5tX+ZB3pkeFECCsRVMrdzmMOEPNSnYRFvNs6hOmnggXxx3ODoJFc5yDrNiHGf5iTAKyA+mYgJnwP6pNymXzO84GCnU/B6sp9Mh79TCViXKX8rbycTy/Aw5dAhQ9Axc5sM2/D3ceYfjJYFBruPtJNZk5EEE8h5n8LePyzkqdREPL9UiWC337J4VF27QmmnwgWBVZXev32QvjKnorT6YWFlN16y3ivdQDTjweLwoxzg1q9mURQiXiq5FkVDLhfNvcKx5YaDAwJmP7VEKYVCVbXYJA5aCXCuBCI8W89OwGGuF8YNxmcxpEH3Zh2bKioHHvYbbBhJQLQ8fNnJ0CM/0jf6+N48eH5Pkw7OlRUPjrfl6zbKIJRiGcmAMKBX6mE79Y773O340JrMw4fPoSDBw8+FVjd51ub4fe0W4qAqPD203V8wP0y6/l05298dwkHDhx4pty8fskkgkr4r/N3jvJ/ARWvgIrEuJuyO1iMGhe7rmPfvn3PBZ/7umlOAOGW5uG8sNa4k7La5Zlne8bZluPYu3dvkrZbtxFWEiAJOCaaAIYUwB8HBCkznUGC5nMXNHtnT5+wHAoq5VsQFd5xNCeA9bzNNtK6940T3oH9+7B79+4kITmBqIq8GFQAXsrOwyDR7DHb+onROCnqzwBjmyQW3dR3mW3vdQKIV3Lpfb3zjF27dmlEVORNWAU4yRl6m6l2WC+PVtvlMT+pWJsK/6i1ANl7XyUeNDU1aTAn8mVAAbySM/Q2WRtyigK9n0R8f0wAY/g77X1mvLGxUSOsIGdCCtAvj/asZ8QZepvjAjiNAp2vVPyGDYHLzsLf3PtK1I2GhgaNkJKw5YmcSPaee6Rw9DbXr1uN82eOIB52Z4kCy2EQGTvv5xL+XoMA9fX1GpkE8EhA10hx0NtcunRpktaWL7UocDwMqBhJTYS11gLYhz9zXol2YevWrRpBOWFJhO9H8LNLiC08iJE5exBZ0wz/DRGdI0jibxeTn7Hv2DWDe6/A20e179PR2ywrK0uyamV11mFgFkC4NL4aEPF9NiaMidDM4c8EqKur07ByPuzuRXzRfsjz90D+exPis3do9J5sT6L/LEWs9ADcvVE8GIEJvc2FCxdqZJ8M0wQgov29AvSPZn9UynXahT8TYNOmTRpDcsKEVH0Y8sK9Rkr3QHZ9BvmTRsRnb7dlcNcFdAzDhN7m/PnzNfSTYVYBqG9lDtkfzm8nwIYNGzSG4gkTculOe1yst7fYMuxqwt1hmNDbdLlcGtkEYNHNwj5jz9tlfwwCRJkAXVCinVi/fr3GYFw1ocyvt8dVD3nWelvovG04FoIJvc3S0lKNdAFUwlEQfhmGfVMB/KSkkFOgaiVApBNr167VsBIgXtkExbXZmrkbocyqtUWsP4EvgwkTepuLFy9OUruq2iCAEvVSUOH3eTudnv2xWgGYAKtXr9YYkFQT4Q4Oyrw1RuaugTKnFsrsFVBmVVlCP12HZs8ADg0lTOhtLlmyJEnr14eNAhDvspJiFSXKcgDWEbBq1SqNdgpL7rsfQXKthDqr3BHD81bg7B0f/jWYsERvc93aWpxrOYx4qMsgAELuqUXM/nDddnNATU2NxnUKW+65eyB9Wgl15vyMDM9dipY7IvYPqLbobbI2sLawNhkEQMdPn0L2x2taBaqrqzW+o8jID/xjSAvKkZj5D0sk12Lc9QSS116jwKVoAgcHVOzpN6K3OdoRbBucJsBwjhGAYfHXiAk7VSJ0q4RXnGyDmfGqqiqNNoKs3OYfY2TBAiRmfmxAcrlwx9Ntuv5COIFdfaoBvU1bAYh3uXPnif/PoGI014MQM758+XKN/xA44ib/CCOl/0Ri5t+SSK5PcMvTbXntVQI0PVEM6G2aBdDaGUNM+IOznqfM+fzOApWVlRr/jsIx7VwAsSVzkrC/7a47E0qgoVcxoLc5LoD5SKwSLgbCV2HY8xvbfQBiws5CToMVFRUal6MoGt9EgJZQAk19Cup7jehtWoV/xtMgFSOIiScxwv82JUB3IfmA1DrMuBhBwbSGgd19Crb1ytj62Bq9Tavwd5gPGELMM4UdhaVCMkLl5eUaFyIomF19CuoeyRnR2ywoIxQTjjIB/IXkBFPncQbrvUJhDm7Kgt5mQTlBKobH5oD8s8IVS5dg0aJFSU4EQjgTRkHs6JWxsSduy5YeSbO3rLIi/6zw6P+h1CoQyfe+QOP2zVpCYnXTbhzrDuHrEPLmeDCBhscyNvTEsT5gZFNAwuqvzmr2djTU5dn7oz6qRDgythTyfzKK4PzO0L0bF7FgwYLnwv1b5vuDzntfGAB1T9Yth/yriIk7QH0+UFFxem+Q9cDpU58bMjPPgjPNhxyEvlUe0BcGFY6Ado87X0gB9U1SiLfsh/YLcv3WDShbvMiQpSkmrO7t2zai4+ZFU+gn7wdS7o2CD0H5FiZCakKa0RTAa9WPisqMnQHThKd3vuR5F1DfpNSQ+PxbEa+u6CkqX7SJtk+IgHpf/x8SgEN/P4fXWMOrigOra6Df+CiO4dGY/ocvPW//S0C4cv3q8HZdAK8s6ykK724JZJjtn3MEgPomgfBl7MWE1BLJmPuFH69UBIoCqyvTc4IqFQqbA4AbE+VoV40S9XiVqFdSiNerRrlqwD/BfG3PRJUKNSrhveOJE/OToptbRUxZEigKm1p9ts8G6kQ4Dcq9mfMqgJ4bE5VI5zWrzIoS5dr0IjDnEROvZXtQmnH6hogp5YGiwOqyczzjA9Opo2947OhrVeTw/Ro58jCZ4bVML0W5FZoA1Ffj9GnxaFDAG6v8mLy4uyDerPWDBPNwXtc+lfKjR18bAbxy5AHsRFAI5xkXQPTm8s5Olyjgr40+TC3vxuSFucF+w37r9gk5Om69lVeJcNRSACl0T5LD96GJYEgzs6SHd0QngJTLGyPWpI/lzGM73fF8X5ZQKR+2FCAe7vAmBQhbRAHL/xOPe1wAwevk7RH7oZEv6U7n9vbK2KNzIesICN6rjoc7YIgCnQhKxF2VulalQvWP9a0xlXCjR9/0An/bBCl4r81GhG+Nq4B/gkr4th/be4Mq5YxHXxsRVsTD9zzx0H1JjjzwxCMPqqz3Af4JKhVWqETwgApK9kY6FyTfuuycZ+Oe9XxG51+Ukv/v8l/moEUsJ3w3jAAAAABJRU5ErkJggg==;" parent="66zPg-nxCHK8hZNyKly8-14" vertex="1">
          <mxGeometry x="20" width="70" height="70" as="geometry" />
        </mxCell>
        <mxCell id="66zPg-nxCHK8hZNyKly8-8" value="" style="shape=image;verticalLabelPosition=bottom;labelBackgroundColor=default;verticalAlign=top;aspect=fixed;imageAspect=0;image=data:image/svg+xml,PHN2ZyB4bWxucz0iaHR0cDovL3d3dy53My5vcmcvMjAwMC9zdmciIGZpbGw9Im5vbmUiIHZpZXdCb3g9IjAgMCAyNCAyNCIgaGVpZ2h0PSI4MDBweCIgd2lkdGg9IjgwMHB4Ij4mI3hhOzxwYXRoIGZpbGw9IiMxQzI3NEMiIGQ9Ik0xNCAyLjc1QzE1LjkwNjggMi43NSAxNy4yNjE1IDIuNzUxNTkgMTguMjg5MiAyLjg4OTc2QzE5LjI5NTIgMy4wMjUwMyAxOS44NzQ5IDMuMjc4NjkgMjAuMjk4MSAzLjcwMTlDMjAuNzg1MiA0LjE4OTA0IDIwLjk5NzMgNC41NjY2NiAyMS4xMTQ3IDUuMjM5ODRDMjEuMjQ3MSA1Ljk5ODYgMjEuMjUgNy4wODA5MiAyMS4yNSA5QzIxLjI1IDkuNDE0MjIgMjEuNTg1OCA5Ljc1IDIyIDkuNzVDMjIuNDE0MiA5Ljc1IDIyLjc1IDkuNDE0MjIgMjIuNzUgOUwyMi43NSA4LjkwMzY5QzIyLjc1MDEgNy4xMDQ1IDIyLjc1MDEgNS44ODU3MSAyMi41OTI0IDQuOTgxOTlDMjIuNDE3IDMuOTc2NjUgMjIuMDQzMiAzLjMyNTY4IDIxLjM1ODggMi42NDEyNEMyMC42MTA0IDEuODkyODggMTkuNjYxNSAxLjU2MDc2IDE4LjQ4OSAxLjQwMzE0QzE3LjM0OTggMS4yNDk5NyAxNS44OTQyIDEuMjQ5OTggMTQuMDU2NCAxLjI1SDE0QzEzLjU4NTggMS4yNSAxMy4yNSAxLjU4NTc5IDEzLjI1IDJDMTMuMjUgMi40MTQyMSAxMy41ODU4IDIuNzUgMTQgMi43NVoiLz4mI3hhOzxwYXRoIGZpbGw9IiMxQzI3NEMiIGQ9Ik0yLjAwMDAxIDE0LjI1QzIuNDE0MjIgMTQuMjUgMi43NTAwMSAxNC41ODU4IDIuNzUwMDEgMTVDMi43NTAwMSAxNi45MTkxIDIuNzUyODkgMTguMDAxNCAyLjg4NTI5IDE4Ljc2MDJDMy4wMDI3NSAxOS40MzMzIDMuMjE0NzcgMTkuODExIDMuNzAxOTEgMjAuMjk4MUM0LjEyNTEyIDIwLjcyMTMgNC43MDQ3NiAyMC45NzUgNS43MTA4NSAyMS4xMTAyQzYuNzM4NTIgMjEuMjQ4NCA4LjA5MzE4IDIxLjI1IDEwIDIxLjI1QzEwLjQxNDIgMjEuMjUgMTAuNzUgMjEuNTg1OCAxMC43NSAyMkMxMC43NSAyMi40MTQyIDEwLjQxNDIgMjIuNzUgMTAgMjIuNzVIOS45NDM1OUM4LjEwNTgzIDIyLjc1IDYuNjUwMiAyMi43NSA1LjUxMDk4IDIyLjU5NjlDNC4zMzg1NiAyMi40MzkyIDMuMzg5NjEgMjIuMTA3MSAyLjY0MTI1IDIxLjM1ODhDMS45NTY4MSAyMC42NzQzIDEuNTgzMDQgMjAuMDIzMyAxLjQwNzYyIDE5LjAxOEMxLjI0OTkyIDE4LjExNDMgMS4yNDk5NSAxNi44OTU1IDEuMjUgMTUuMDk2NEwxLjI1MDAxIDE1QzEuMjUwMDEgMTQuNTg1OCAxLjU4NTc5IDE0LjI1IDIuMDAwMDEgMTQuMjVaIi8+JiN4YTs8cGF0aCBmaWxsPSIjMUMyNzRDIiBkPSJNMjIgMTQuMjVDMjIuNDE0MiAxNC4yNSAyMi43NSAxNC41ODU4IDIyLjc1IDE1TDIyLjc1IDE1LjA5NjNDMjIuNzUwMSAxNi44OTU1IDIyLjc1MDEgMTguMTE0MyAyMi41OTI0IDE5LjAxOEMyMi40MTcgMjAuMDIzMyAyMi4wNDMyIDIwLjY3NDMgMjEuMzU4OCAyMS4zNTg4QzIwLjYxMDQgMjIuMTA3MSAxOS42NjE1IDIyLjQzOTIgMTguNDg5IDIyLjU5NjlDMTcuMzQ5OCAyMi43NSAxNS44OTQyIDIyLjc1IDE0LjA1NjQgMjIuNzVIMTRDMTMuNTg1OCAyMi43NSAxMy4yNSAyMi40MTQyIDEzLjI1IDIyQzEzLjI1IDIxLjU4NTggMTMuNTg1OCAyMS4yNSAxNCAyMS4yNUMxNS45MDY4IDIxLjI1IDE3LjI2MTUgMjEuMjQ4NCAxOC4yODkyIDIxLjExMDJDMTkuMjk1MiAyMC45NzUgMTkuODc0OSAyMC43MjEzIDIwLjI5ODEgMjAuMjk4MUMyMC43ODUyIDE5LjgxMSAyMC45OTczIDE5LjQzMzMgMjEuMTE0NyAxOC43NjAyQzIxLjI0NzEgMTguMDAxNCAyMS4yNSAxNi45MTkxIDIxLjI1IDE1QzIxLjI1IDE0LjU4NTggMjEuNTg1OCAxNC4yNSAyMiAxNC4yNVoiLz4mI3hhOzxwYXRoIGZpbGw9IiMxQzI3NEMiIGQ9Ik05Ljk0MzU5IDEuMjVIMTBDMTAuNDE0MiAxLjI1IDEwLjc1IDEuNTg1NzkgMTAuNzUgMkMxMC43NSAyLjQxNDIxIDEwLjQxNDIgMi43NSAxMCAyLjc1QzguMDkzMTkgMi43NSA2LjczODUyIDIuNzUxNTkgNS43MTA4NSAyLjg4OTc2QzQuNzA0NzYgMy4wMjUwMyA0LjEyNTEyIDMuMjc4NjkgMy43MDE5MSAzLjcwMTlDMy4yMTQ3NyA0LjE4OTA0IDMuMDAyNzUgNC41NjY2NiAyLjg4NTI5IDUuMjM5ODRDMi43NTI4OSA1Ljk5ODYgMi43NTAwMSA3LjA4MDkyIDIuNzUwMDEgOUMyLjc1MDAxIDkuNDE0MjIgMi40MTQyMiA5Ljc1IDIuMDAwMDEgOS43NUMxLjU4NTc5IDkuNzUgMS4yNTAwMSA5LjQxNDIyIDEuMjUwMDEgOUwxLjI1IDguOTAzNjlDMS4yNDk5NSA3LjEwNDUzIDEuMjQ5OTIgNS44ODU3IDEuNDA3NjIgNC45ODE5OUMxLjU4MzA0IDMuOTc2NjUgMS45NTY4MSAzLjMyNTY4IDIuNjQxMjUgMi42NDEyNEMzLjM4OTYxIDEuODkyODggNC4zMzg1NiAxLjU2MDc2IDUuNTEwOTggMS40MDMxNEM2LjY1MDE5IDEuMjQ5OTcgOC4xMDU4NCAxLjI0OTk4IDkuOTQzNTkgMS4yNVoiLz4mI3hhOzxwYXRoIGZpbGw9IiMxQzI3NEMiIGQ9Ik0xMiAxMC43NUMxMS4zMDk2IDEwLjc1IDEwLjc1IDExLjMwOTYgMTAuNzUgMTJDMTAuNzUgMTIuNjkwNCAxMS4zMDk2IDEzLjI1IDEyIDEzLjI1QzEyLjY5MDQgMTMuMjUgMTMuMjUgMTIuNjkwNCAxMy4yNSAxMkMxMy4yNSAxMS4zMDk2IDEyLjY5MDQgMTAuNzUgMTIgMTAuNzVaIi8+JiN4YTs8cGF0aCBmaWxsPSIjMUMyNzRDIiBkPSJNNS44OTI0MyAxNC4wNTk4QzUuMjk3NDggMTMuMzY5NyA1LjAwMDAxIDEzLjAyNDYgNS4wMDAwMSAxMkM1LjAwMDAxIDEwLjk3NTQgNS4yOTc0OCAxMC42MzAzIDUuODkyNDMgOS45NDAyMUM3LjA4MDM4IDguNTYyMjMgOS4wNzI2OSA3IDEyIDdDMTQuOTI3MyA3IDE2LjkxOTYgOC41NjIyMiAxOC4xMDc2IDkuOTQwMjFDMTguNzAyNSAxMC42MzAzIDE5IDEwLjk3NTQgMTkgMTJDMTkgMTMuMDI0NiAxOC43MDI1IDEzLjM2OTcgMTguMTA3NiAxNC4wNTk4QzE2LjkxOTYgMTUuNDM3OCAxNC45MjczIDE3IDEyIDE3QzkuMDcyNjkgMTcgNy4wODAzOCAxNS40Mzc4IDUuODkyNDMgMTQuMDU5OFpNOS4yNTAwMSAxMkM5LjI1MDAxIDEwLjQ4MTIgMTAuNDgxMiA5LjI1IDEyIDkuMjVDMTMuNTE4OCA5LjI1IDE0Ljc1IDEwLjQ4MTIgMTQuNzUgMTJDMTQuNzUgMTMuNTE4OCAxMy41MTg4IDE0Ljc1IDEyIDE0Ljc1QzEwLjQ4MTIgMTQuNzUgOS4yNTAwMSAxMy41MTg4IDkuMjUwMDEgMTJaIiBjbGlwLXJ1bGU9ImV2ZW5vZGQiIGZpbGwtcnVsZT0iZXZlbm9kZCIvPiYjeGE7PC9zdmc+;" parent="66zPg-nxCHK8hZNyKly8-14" vertex="1">
          <mxGeometry x="20" y="108" width="72" height="72" as="geometry" />
        </mxCell>
        <mxCell id="66zPg-nxCHK8hZNyKly8-9" value="" style="shape=image;verticalLabelPosition=bottom;labelBackgroundColor=default;verticalAlign=top;aspect=fixed;imageAspect=0;image=data:image/png,iVBORw0KGgoAAAANSUhEUgAAADAAAAAwCAYAAABXAvmHAAAACXBIWXMAAAsTAAALEwEAmpwYAAAE1klEQVR4nO2Z609bZRzHT7ht64DJdWNlzA7GWoyvjIv+FZqomZkvJJkvfa8hjsNt0DEqQ2DQcqczJijgBXDqFuOyxPhCsxBMHPSyXg6l7WnP6SnQnkL5maeoYeG05zx9oGrCN/m9/3xPn9/v+T3fUtSRjnQkck1BtnYi9OqlcaGhdjw0XTvO/35xNBSsGeNi1aNcrHqED2qGuSXNcHBaYwo2nDexr1A0ZFH/tl74bPOczhzWaycF96UJAVDVjofg4hgqHmpGeage4eHCMJcozVAQnjehCsD5wYCraoDtUJvYyoyD10wJZTpz2KidFETtZBiw4Y0BqBpkE1V5xy9W3vENVBiZ0ozA190NX9VOrgd05jCQwp8bSBhIlLrfx57t9b19aOAvGSG37m54SGdeh0OAh7N9qLxQ0esdpIyQe9DwqjpzeCED8HDmEy+U96zNVxgZ1UHB52YS/nTPWqLKbq/+QNFLecQGMnRsYC98+W0PlHV7oLSbGSCD/zT8Dim8xsjCtXsCjC5G4IFDhF/XtuBnJgYPnSLMWaLw0UNBEr6sexVKP16Foi73lbTgtROhEt3kup8E/rVZHmz8NqTSI5eYFL7EwEBJFxPI70pjxKI5TwL/+iwP4vZOSvi9BiThDQwUdzFQ1Onqx4J/0bxRSXJJXTCx4BLioESPXGJq+FtuVGKRnqnC+fp6koZ9/35YEfzfBmTg4blOF5y66exQRk9DlnZCcJFMm+knUZCSI7QNb85wUDvo260BL2j61xTAu6BQ73CjpVGWP7FVEo7K5aB0474xw6VuWIM0/KmbTijUJ+qyrAG0EpPO+WBkf/N61uNwhgC+oMMB+XrHh/IGJkIzpJfUlkT//rIaI4Iv6HDAyXbH57IGasf4JdIbNi4xPe/bo0Tw+e0OUN2wL8oaqBkLBUjXAykD39uiRPAnbzyFE212v7yBUU4k3W2SG0gfXtX2FFSt9qisgeoRTsSBRxcWH915pqQUiwNwkfi+Mv22rgy+zQ4nWpQZCOB8eUGUXxdSqeknXhl8qx2OtdjkjxBKD3CODamBqzOsIvjjLTY43myTb2LNUHAG58yTGrg87FEG32KDY802+TGKchuchg0RGNiKA5TecimFh7wmyweyBlDohPOSqp/j4b2Fv2qeg2tzHEhZerwWg/qvA1D/FQvvfrlbV77wY8BbIafZ+rKiZa7KyDrTfQaiUSk1Rr+zRpRPm9b98LlNVofiNA8lZunCozmfzEC68HnIAG1pp5QKxX27iRk+PLqgpAzcs0RI4KNUwxM1hSMU96UDn9zAZrrwkN1o6cWCTxgY4ovVfT4/LjxaD5IZSAc+p9HCUvQf6eWmKKvEhUd7TSoDmPCQ3bjyFkUilFXiwKcygA1/fbmPItYUZJ/u8cziPEYkDaxsYsHnNK7MUfSPOeQG0K9gZFTl3Z55pfu8lIFvVzaVw19f+YaiDyjc/UdGyEVZpZJ9PrkBhceGPqAvLyWUVZYY3P5Uj5FkBmTgfcQNq1QF7e4SFPcVdbqjUutBMgPJLqlsNOfppWIq0yo2ONUoMSvUO5x7LykpAwvLG8/uNrTVmVgPcG/YQxENWSh0QrkNij4WveKGi4/FN2I7sLm1A0xoK25+LLBon0crcWKr/C/8zXqkI1H/f/0JPDNnaCVeJTwAAAAASUVORK5CYII=;" parent="66zPg-nxCHK8hZNyKly8-14" vertex="1">
          <mxGeometry y="250" width="48" height="48" as="geometry" />
        </mxCell>
        <mxCell id="66zPg-nxCHK8hZNyKly8-10" value="" style="shape=image;verticalLabelPosition=bottom;labelBackgroundColor=default;verticalAlign=top;aspect=fixed;imageAspect=0;image=data:image/png,iVBORw0KGgoAAAANSUhEUgAAADAAAAAwCAYAAABXAvmHAAAACXBIWXMAAAsTAAALEwEAmpwYAAANU0lEQVR4nO2Z51NU65aHvTPnfJo/ZKbOp6k6VWNABJrQuffuQBAJKgpmxRxQvJhQDBgBRQmSbAktIBJFBROimHPO5xjwqAQB+5l6927aa9Xcqep77nyYKlfVW13s3ey1nt9Ku2DEiB/2w37YD/t/YWlyk2luVEtHdNypXnnS6a9Swmnsk9qJnNhOTNwpJsWeYmrMCWZEtzI36jgLIlpYEt5Eir2J1bZG1ssNbJTq2Wo+xg5jHVn6o+zTHiU/tJaikBpKNa7+ikDXw5pxrn0NY6r+858WeEZow78lhzd2WCe3I4KWEs5gnXwa++R2oia2M2FiG/Fxp0iIOcm0Ca3Mij5OclQLiyKaWBbeyCp7A2nWetbLx8iwHGOb+Si7jEfJNtSSq6shP6yG4pBqDmmOUBl0hOoAF8f8q4aa/CqyOn/N+flPBz8nsuV51KQ2Iie1Ez6xnYhJIvA2oie2ERN/ivjYEyTEtpIY08rM6BbmjW9mQVQTSyMaSXHUs9pez1rrMTbKdWyx1LHdXMtuYy179dUc0FZTGHaEslAXTo2LqiAXNeMUAJr9KjkxqqL5T0Gk2BvaJsaeID7uJHHxJ4n1nPi4E0yMO8HkuFamxrYyfUILsyY0M3d8IwuiGlkSUc+K8GOsstexxnaUDdZaMuRaMi017DJVk22sJlfvIl/rojjMhTO4igpNFdVBldQFVNDgX0nLmApOja7gzKjDmf9Q8NukGu2M6BZ3UsxxEsWJVYOdGnucqTEtiOvTJzQzM7qZOdFNJI9vYFFUA0sj60kJr2O14yhrHbWk22rYbK1hm3SEXWYX2SYXucYq8vSVFIVVUhpaQUVIBa7gCo4GllMfUE6z/2FaxxymbfRhzv6Xc/D06PL/8BlgrbW2eV5UE3Ojm5kd3cys6CZF5VkTmpgd3cSKaSdoqHrAi8cf+dI/hK822DfI+3vd3Cq+yTFbNTUaJ/WBTprGOWkd66TNz8np0Yc4P9LJ2ZHODJ8BUu1H3y6JrGdxVD2LxtezMKqeBeOPsXD8MQozu+jvHfQ56L8L0zPApdQ2GgNLOe5fxsmxZZwZU8r50aV0jCrj/MhDl30GSHPUDqRG1LIyopaUSM+JqKF0aydut+r4dudrCla3kx5TwzpHFemOCjbby9lqKyfT6mSn9RBZUhn7LKXkmUs4aCyhxFDMIX0xR6Qy2hc18tu558qz3G4311aepM2/iDN+xXSMKebC6GIujCrl/MjSbp+CT0zM+XmDw8V6xxHlrHW4WBfuInNKHV88yreWXCM9vJyN4eVkOJxsdTjJtJex01bKblsJ2dZicuViDlgOUmAppNhUSJmxgHJDAZW6Amq0edSF5dEQksf9A5eUZw59/sJFSxkdfgVcHFNI5+giFWJk8ZBPAKmprT9ts6lKbrWXs8V+mM0OJ2fLbyqOHlx4wTZHKZmOEnbYi9llL2K3/SDZtkL22grYby0gX87noJxHiSWPQ+b9lJtycRlzqdbnUqvL5UHpZYb6BnlcfJlTmn28P/NEefaLvEt0+e3n0pg8Lo4poHP0QTpHFfkG0Jra+lOWXEaWtZQ91hL22IqV8/bRe8VJ9aoGcuwF5Njy2WfLZ7/tAAds+ymw5VJo3UeJvJcyaS+HLTlUmrNxmbKoMWZRZ9xNo34Pzbo9DPUOqKr3DHBOs4c7ydXKz71333Bl7F4u++XS5XeAS2PyuTiq0EeAgNaf8qVC8uQC5eRb88mz5jHQpzotHp9PgW0vB205FFlzKLFmU2bN4pB1DzXx+7nt7ODDwzcM9Q0o5+OD33lYep628dmc0G2jXZvJ85IOBeJlUQddmu1c0+coz/7aM8DVsVlcGZvDZb99CsTFMflffQJwhof/q9OyH6clV1GyTM6hTM72Tg2ndReH5Z1UWHdQIe/AZd3OEXkbnZtqGez98nenzVDPF+6uqaJTm86lsI1cCd7EteBN3AzK4FbAZu/3rvvv4pr/Hi/EJb/9vgNUm3dzxLybamkn1ZYd1MiZXge18hbq5M3UWTdRL2+iUU7nysYq8Eyndx13ubr8IOfC07ngSOfW8kI+nL+j3nS7eZLm5FZoGrdD07inWcO9oHXcDUz3Pv/GuO1c99+pQFwdm02X3z7fAEhN/Zcm41aaTVtpMm+m2byJFstGr4NWaR0n5bWckNM4Ja3mXHwGQ739yr2nBxu5IKVwybyCLvMKrpqWc924jBuG5bwpaFTL5HMfT8PX8zgkhUfBq3ig+Sv3NWu9z78VsOU7iCtjs30HOG3cwGnjek6b13LGvIaz5tVeBx1SCh3SMjqlpVyUl/DqULNy/Y+OG1yzzOemZQG3zcncMc/jvjGZh6Z5PDbM44l+Pn3nbijf/VjUxLPQJTwJWc7jkJU8DP72/DuBGz0QmQrEVf/dbt8ARoz4S5dhNV2mVVw2pnDZvJwr5qXfalSazw1pLrekOdyRZ9P/SF1GL1ds46E0jceWJJ6ak3huTuSVOYnXxkR+NyTxRj+N7qXble8O3H/Oi7AFPA9bzNPQZUo2hu1e0PrvIK757/Ad4I5+KXeNi7hnnM998zwemOd4HTySknhimcozKYFn0mTcfWr5/B6RyBtLrHLeWWLoNsfwhymGD6ZYuo0TeW+czDv7bLUVevt4rZvDS20yz8MW8jT0m0APNGnfQVwfl+k7wAv9XF4YZvLCOI1Xpqm8tiR4Hby1xPBOiua9FEW3HI67t1e53hMZTa9kpVey0SPZ6bE4+GyJ4JM5io/maD4ImPBpKkBPH7/rp/NaN4uX2nm8CFv4TSClL4YhNnEzYIvvAG8MSbwzJtBtjFdU/Gge73UgguyTJPplC/2yCffDB8r1wZXL+GI18kU20S+blft9kqwCWRx8skTSs0Jt1qH7j3lnmMIbfRK/6WbySjvP+/wnISt4FJzqgdjA7cAMRvhqIt0fTHGKcp8sEfRY7F4HX2QjA1Y9g1Ytg7Yw3M4iVdULZxmyhSpHXB+06hiwGhSgPtmigA9duKh8t7+kgm5TvCKSEEtADJva3Ct4GJzKfc0a7gal+w4g6lao/tkSrjgWag6bCPCrPRi3PQgcgZAgQe9n9WZpLjgClOtuu4avthCGbGEK8FDxQU/59NATk+ApqzjeGScrEMM23BOiscV0uh+0zneAj+YoJe2iBESZiAC8JgKMDIToQIgJhLgg2LFKWVKKdZ2B9ckwSQ9xOlidjLvznHrP7WZgwzpFlM+WcEWkYYhhUxt7kTKdhvvBZwA1eEkpF1EqQnGviaAnBkFCEEzVQJIGpmkgJ/VbJv4n6/nM142pDFh1iii9kuyF6DbFeb/2WjebF9r535WSzwBK8FajUstf7RqICIC+HtXDLKMa8KxgmBMM80IgOQTmh0CKHeoL4dld6O9Vf+fJXXAVQJKkZE+IIUT5okB4MhGZ8DfTaQavtHP/ppRWwgj+4hNAv2x0D9q0Sh0TGQCxgfD0ngqwY4Ea8KIQWBIKy0Jhhecs9/wsri8MUeEEqMjSpCCYEAjhwxA6ZVqJKdWbkuadTmpTi/GazLOwxUoWxGT0CWDAqnN7lRfBT9FAndqE3DyrBrkyDFaHwZowWKv9dtI811NCYakHRGRKZG1ykFqCAsIWovSWGBBDFzo906mKd4YEZUe80s1V9oOy5HwFGLKFuIUTxdmUIJgRDCvt0O8po+N5sF4LG3WwWQdbdLDV85mhg3QtrNOqICIzi0NgbjBM90CITDgC1bFbUuidTh+jp/HeOIk3hkTPklN7wWeAr/aAP5QpI5wJp6JkhJqlf/02bR6cg8qlsNcGewyQZVA/d+lhu16FESAiQyJbwxAiE0kGWJMMnWe906l//UbE9BMNLZac2gvzeBa28NMIX43IcdeID1JrVzhdHAqrwlRVXWvgy/8ybXy1ns8Mpq/xTKUIZfOLRSpe/sT70vPQ+Td8B4gO2KKMyZnBag2Lel6jVctjhx7yo6CrBN7dF3+l8j1oMZ0e34WKAtwTrZ6Gtii7Ryw48fL31pCoNPMLbfJW3wEmaH4hKWhIUV+UjqhlUQ6Zesg2QJ4Rik1w2AxVFqi2QI3ns9ICTjMUmWC/US0r0R+iZ1Z5Sml2sLpDRI85ApVxLXZDj2TzltFbwxRe62cMvtQt+MVnAAViRlAmC0LUJhTTRdT0br0alAi+3KwGXS9BkwzNMjRJcEyCIxYV7qAJ9hlgp17NnphQYoKJ8TpNg1KmEQEM2UKUvSP2gnjpE68yYhr9pp++7R8KXgFI/PVnFgU3KKpt8KifY4ACo6qwULtBghMytFvhtBXarHBcVqFcFigzqdnK8mRB9JAoRyHMjGB1N0QFKntBjNQ+Tx+IV++3hsn1/Jr45/5HoECkhmWSrh1Sal+oKUqjwgx1ErTKcMYKF23QZYcLNhWkRYZaTxYKTSq4EEAIIQQRS3BmsDrlxgsAjQogS3yyhA9+MEZv+dPBfweSofuFXfpt7Ddcp8T0Wal7of4pqxr0NTvcdsAVO5y3qVkRgAJUAAtwMVpFH6V6AGYFq+9T0QpA94Csu9wnmTf9YQn/939a4D/sh/2wHzbi/9L+GxmBVYSR4FR5AAAAAElFTkSuQmCC;" parent="66zPg-nxCHK8hZNyKly8-14" vertex="1">
          <mxGeometry x="60" y="250" width="48" height="48" as="geometry" />
        </mxCell>
        <mxCell id="66zPg-nxCHK8hZNyKly8-11" value="" style="shape=image;verticalLabelPosition=bottom;labelBackgroundColor=default;verticalAlign=top;aspect=fixed;imageAspect=0;image=data:image/png,iVBORw0KGgoAAAANSUhEUgAAADAAAAAwCAYAAABXAvmHAAAACXBIWXMAAAsTAAALEwEAmpwYAAAEiElEQVR4nO2YX2hbVRzHb7dB06ZtcvOn+d+0adqsnS8i4lCGbOCDQxmC+OCDgoL4DwVRZCjENm3aJs2/Jrlp2jTpvxWcCHPK3mQPjvogdQ8DN+ySm383N703f5t2jJXtJzeKOHFpbnOTTsgHfo+X3+d7OOfccw6CNGnSpEmT/xtajHpS7aMdKi91Q+mhCkovdUfhpjYVM+llmZt8CQFoedS3qJPoqaqJYW1XqQ0Bj0txnT8n0GCZNQ1GPVBjNKi8TFGg9FCgcG+VSz6TBpmT/FnuSg3/81uRLX1SNJ28JLIStqqaDa2WgkMrO98iF+EoF/IaN61UY5mbGh8NFeVdaeh2kkzlpU7yQ4mdmJXYUjGxjQCRlchKLbh832b6K9A6tLJTGl7dgaGVUuj5q3CsFnltCOepscwvLORB6iBBYk+Vqyw/ndwTW4hzVTU8sbL7NCP/VwA4vlS6/JQf2g8aQI3Rn9Uij04nd1Br8jVm9FFL7D3hZOJ8pXWCDK3unvtbfvnPMiwVrxsCRQNreyMc02A0ffCRJwC1Jm4KrcmE0JIAoSV+C50MCyr2HF4unXlYfhsGF7dhIFTc0YcK7yJGOFKtv8pLn65FXjSdBNSaBEZeYIknOs3JwX2bDlwo6P4tP7hYZAKAPlgA/UJhoy+YO1VVAIz6iAt5oSW+IZ6KKasbNiMcOb5cwv9TPliA/oU86AJ56J3P/6Sdy79SaadSeWlT7fKJsMxK8hE2GJa2v6gk3zfPVA5653LQM5uhtP6MX+ujzvZgBfThANTHNcpD12R8A2GLfiXTNbhYDO8nr/Vny9UzmwGNLwPln5SXuqXyUN+pPJRH4aa+qUVeMFUOcI11gHKIUPGkPljYrVq+pn2eeJQ8dJhjV9iJBwuvD4SKF/XB3Mv6hfyr/Qu59GHJd07EodMcnWUb4AVW06ae8hMxaDdHP2UVwBCgO/uD+XuPg3yHOQb8cfw0whZdIPf1YyE/Fr2HGAn2x5j+ueyJ3vnc3cMd+Si0j+M/Igelby73wWHK88ej0DaGv4/UgnY2+4nWn9k7DPl2E36Xb7zdjdRKjz/7rBqjrzVUfgyHNlMkxIE8pVAxRwTf1nNqjDIqPVS2QfL3+eO3n+DmHuujS40deZypJYQrVN7M+QbLF3mmTQ1nAZjjstKz9UOD5KF1NPIOwjXMeVzu3rpcb3neaPhSxftuTQC0yFzkW92uNF4X+ZHwb4jx9y6k7lyEoxI7cUrqID8X21LXOZk2I+FoqxHvRRqFwIELxfZUQGIjHnAjH9M1RFwxTUgkjtSXYjuxxc2CDa/zx8Oyukp329M6mZN8W+pMrUkc5B1u5nzkPm8k7ESMOIfvrwAtKg91ltlt5DNb63IXuSlzkiWuFyxvFL/BGwlX9SxzIJTupFjmIu11kN/kjUbeYPMwVvPeL3Wm3pTaU1eZxXqg8/wYnmszRS60mqJn6re/V4FgIoai1tSLqJX4SmRNfI9aEr8KpuJRgSVeEkzF9zon47mOiXi4YyK2zjfHAsw9ts0ceYar5/kmTZo0aYLUgz8AFq4opyH4XtoAAAAASUVORK5CYII=;" parent="66zPg-nxCHK8hZNyKly8-14" vertex="1">
          <mxGeometry x="32" y="298" width="48" height="48" as="geometry" />
        </mxCell>
        <mxCell id="66zPg-nxCHK8hZNyKly8-19" value="" style="group" parent="1" vertex="1" connectable="0">
          <mxGeometry x="310" y="390" width="80" height="200" as="geometry" />
        </mxCell>
        <mxCell id="66zPg-nxCHK8hZNyKly8-36" style="edgeStyle=orthogonalEdgeStyle;rounded=0;orthogonalLoop=1;jettySize=auto;html=1;exitX=0;exitY=0.5;exitDx=0;exitDy=0;" parent="66zPg-nxCHK8hZNyKly8-19" source="66zPg-nxCHK8hZNyKly8-12" edge="1">
          <mxGeometry relative="1" as="geometry">
            <mxPoint x="-110" y="160" as="targetPoint" />
          </mxGeometry>
        </mxCell>
        <mxCell id="66zPg-nxCHK8hZNyKly8-12" value="" style="shape=image;verticalLabelPosition=bottom;labelBackgroundColor=default;verticalAlign=top;aspect=fixed;imageAspect=0;image=data:image/png,iVBORw0KGgoAAAANSUhEUgAAAEAAAABACAYAAACqaXHeAAAACXBIWXMAAAsTAAALEwEAmpwYAAACmUlEQVR4nO2bzYvTQBjGX/Av8G9x95ZUKBTqoc0E6X2XRESvnpfNVQWPi562Cx7Ek7L1UC/KZrf0HJpTlxS6H3UPdaci1LSBkVltrWVLPzIhmeZ94IHCNMk8PzIz7yQtAAqFQkmmK/2+damrP39tFy6Gj8gDSJu8/GbQ3y6wgUm425BKAFspBvDtobpzrqv+963Cj6Gh5yGN0jTN4oa0SltXAFcHYLVeQ3CxD6z/EdigEtKHcDb8BPKsFN4bCE73gPU/CAj/z/JMlKd7wLhHnT/6vMlI7YAp9cqNSa3M7OrGwu0jg6wASK08DjeyflJeuF0aAL5BTvi6Pg1gOtzIi7aPbRLmG5oNSdXgT1ETKQBukA0AETQEpAVgVzf+C8nDHVfvLdwuPYCBKCcdgG9odtQAfIMcLd2xXC5nZTKZQFEUxp3NZlmxWGSEECHWNO3Z5PWmATw+fjlzopvlJ/YLccugqqrj8Nwiw/8F4E/W9NMAeJhlATy1n4sDoEyE5xYZftKzAMReCivyA2gPK5AXBsCs00h8GwD/EF6xCtyFOKXEB2AXkiAlBgCXZfjCP5fesztG/frtMueZNbSkAXC+D19XDb8WAMKEXwsApRDhpQdQChleagAlAeGlBmDWr9+JOI/EAKgQIwCCdwBL1BCgdDWPnuBIPwRo2gGYOAlSXAVMXAYp1gEmFkIUK0ETS2GKewETN0NU7t0giejFSNQvXBDAqlLwDlDSNQRarZblum7gOA7jbjabrNvtrryt5XZd9+Zcy5gfE+aat/is1+vN/8Voo9EYh+cOG5670+ksBYF/lx8jGAD3/NfkzlRnIuhErEYA8+TgHeCkewg0IpgEE+T5k6DneTuTEEQsgwlxm1Kazv8XoVAomKXfAW/ZojRbu+kAAAAASUVORK5CYII=;" parent="66zPg-nxCHK8hZNyKly8-19" vertex="1">
          <mxGeometry y="120" width="80" height="80" as="geometry" />
        </mxCell>
        <mxCell id="66zPg-nxCHK8hZNyKly8-35" style="edgeStyle=orthogonalEdgeStyle;rounded=0;orthogonalLoop=1;jettySize=auto;html=1;exitX=0;exitY=0.25;exitDx=0;exitDy=0;" parent="66zPg-nxCHK8hZNyKly8-19" source="66zPg-nxCHK8hZNyKly8-13" edge="1">
          <mxGeometry relative="1" as="geometry">
            <mxPoint x="-110" y="15" as="targetPoint" />
          </mxGeometry>
        </mxCell>
        <mxCell id="66zPg-nxCHK8hZNyKly8-13" value="" style="shape=image;verticalLabelPosition=bottom;labelBackgroundColor=default;verticalAlign=top;aspect=fixed;imageAspect=0;image=https://spng.pngfind.com/pngs/s/495-4954446_intelligent-virtual-assistant-icon-hd-png-download.png;" parent="66zPg-nxCHK8hZNyKly8-19" vertex="1">
          <mxGeometry x="10" width="60" height="60" as="geometry" />
        </mxCell>
        <mxCell id="0_kUKvZpLYJWTEZ_aIxn-9" value="" style="endArrow=classic;startArrow=classic;html=1;rounded=0;entryX=1;entryY=0.5;entryDx=0;entryDy=0;exitX=1;exitY=0.5;exitDx=0;exitDy=0;strokeWidth=3;fillColor=#60a917;strokeColor=#2D7600;" edge="1" parent="66zPg-nxCHK8hZNyKly8-19" source="66zPg-nxCHK8hZNyKly8-12" target="66zPg-nxCHK8hZNyKly8-13">
          <mxGeometry width="50" height="50" relative="1" as="geometry">
            <mxPoint x="632" y="316" as="sourcePoint" />
            <mxPoint x="682" y="266" as="targetPoint" />
            <Array as="points">
              <mxPoint x="113" y="95" />
            </Array>
          </mxGeometry>
        </mxCell>
        <mxCell id="66zPg-nxCHK8hZNyKly8-24" value="" style="shape=flexArrow;endArrow=classic;html=1;rounded=0;fillColor=#60a917;strokeColor=#2D7600;entryX=0.5;entryY=1;entryDx=0;entryDy=0;" parent="1" target="KiE-p9byAmrBn2ZulwZ0-4" edge="1">
          <mxGeometry width="50" height="50" relative="1" as="geometry">
            <mxPoint x="1780" y="840" as="sourcePoint" />
            <mxPoint x="203" y="840" as="targetPoint" />
            <Array as="points">
              <mxPoint x="981" y="840" />
              <mxPoint x="638" y="840" />
            </Array>
          </mxGeometry>
        </mxCell>
        <mxCell id="66zPg-nxCHK8hZNyKly8-26" value="" style="endArrow=none;html=1;rounded=0;fillColor=#60a917;strokeColor=#2D7600;strokeWidth=11;entryX=0.5;entryY=1;entryDx=0;entryDy=0;" parent="1" target="66zPg-nxCHK8hZNyKly8-18" edge="1">
          <mxGeometry width="50" height="50" relative="1" as="geometry">
            <mxPoint x="1782" y="850" as="sourcePoint" />
            <mxPoint x="1800" y="260" as="targetPoint" />
          </mxGeometry>
        </mxCell>
        <mxCell id="66zPg-nxCHK8hZNyKly8-28" value="&lt;font size=&quot;1&quot; color=&quot;#007fff&quot; style=&quot;&quot;&gt;&lt;b style=&quot;font-size: 24px;&quot;&gt;GENERATIVE RESPONSE&lt;/b&gt;&lt;/font&gt;" style="text;html=1;align=center;verticalAlign=middle;resizable=0;points=[];autosize=1;strokeColor=none;fillColor=none;" parent="1" vertex="1">
          <mxGeometry x="1005" y="860" width="312" height="41" as="geometry" />
        </mxCell>
        <mxCell id="66zPg-nxCHK8hZNyKly8-30" value="&lt;font style=&quot;font-size: 21px;&quot;&gt;CHATBOT&lt;/font&gt;" style="text;html=1;strokeColor=none;fillColor=none;align=center;verticalAlign=middle;whiteSpace=wrap;rounded=0;fontSize=21;" parent="1" vertex="1">
          <mxGeometry x="320" y="350" width="60" height="30" as="geometry" />
        </mxCell>
        <mxCell id="66zPg-nxCHK8hZNyKly8-33" value="&lt;span style=&quot;font-size: 21px;&quot;&gt;VIRTUAL ASSISTANT&lt;/span&gt;" style="text;html=1;strokeColor=none;fillColor=none;align=center;verticalAlign=middle;whiteSpace=wrap;rounded=0;fontSize=21;" parent="1" vertex="1">
          <mxGeometry x="320" y="600" width="60" height="30" as="geometry" />
        </mxCell>
        <mxCell id="66zPg-nxCHK8hZNyKly8-39" value="" style="shape=image;verticalLabelPosition=bottom;labelBackgroundColor=default;verticalAlign=top;aspect=fixed;imageAspect=0;image=https://cdn-icons-png.flaticon.com/512/219/219983.png;" parent="1" vertex="1">
          <mxGeometry x="50" y="37" width="172" height="172" as="geometry" />
        </mxCell>
        <mxCell id="66zPg-nxCHK8hZNyKly8-41" value="" style="endArrow=classic;html=1;rounded=0;exitX=1;exitY=0.5;exitDx=0;exitDy=0;strokeWidth=3;fillColor=#e51400;strokeColor=#B20000;" parent="1" source="66zPg-nxCHK8hZNyKly8-39" edge="1">
          <mxGeometry width="50" height="50" relative="1" as="geometry">
            <mxPoint x="824" y="172" as="sourcePoint" />
            <mxPoint x="581" y="122" as="targetPoint" />
          </mxGeometry>
        </mxCell>
        <mxCell id="66zPg-nxCHK8hZNyKly8-42" value="" style="endArrow=classic;startArrow=classic;html=1;rounded=0;exitX=0.5;exitY=1;exitDx=0;exitDy=0;strokeWidth=3;fillColor=#e51400;strokeColor=#B20000;" parent="1" source="66zPg-nxCHK8hZNyKly8-39" edge="1">
          <mxGeometry width="50" height="50" relative="1" as="geometry">
            <mxPoint x="824" y="572" as="sourcePoint" />
            <mxPoint x="136" y="346" as="targetPoint" />
          </mxGeometry>
        </mxCell>
        <mxCell id="66zPg-nxCHK8hZNyKly8-43" value="&lt;font style=&quot;font-size: 20px;&quot;&gt;GATHERING USER DATA&lt;/font&gt;" style="text;html=1;strokeColor=none;fillColor=none;align=center;verticalAlign=middle;whiteSpace=wrap;rounded=0;" parent="1" vertex="1">
          <mxGeometry x="351" y="78" width="60" height="30" as="geometry" />
        </mxCell>
        <mxCell id="66zPg-nxCHK8hZNyKly8-45" value="" style="group" parent="1" vertex="1" connectable="0">
          <mxGeometry x="1178" y="403" width="372" height="220" as="geometry" />
        </mxCell>
        <mxCell id="66zPg-nxCHK8hZNyKly8-20" value="" style="shape=image;verticalLabelPosition=bottom;labelBackgroundColor=default;verticalAlign=top;aspect=fixed;imageAspect=0;image=https://cdn-icons-png.flaticon.com/512/6683/6683734.png;" parent="66zPg-nxCHK8hZNyKly8-45" vertex="1">
          <mxGeometry x="240" width="132" height="132" as="geometry" />
        </mxCell>
        <mxCell id="66zPg-nxCHK8hZNyKly8-27" value="&lt;font style=&quot;font-size: 20px;&quot;&gt;TRAINED DATASET&lt;/font&gt;" style="swimlane;whiteSpace=wrap;html=1;" parent="66zPg-nxCHK8hZNyKly8-45" vertex="1">
          <mxGeometry y="50" width="250" height="136" as="geometry" />
        </mxCell>
        <mxCell id="KiE-p9byAmrBn2ZulwZ0-1" value="&lt;font style=&quot;font-size: 19px;&quot;&gt;Structured KB&lt;br&gt;Previous/Past Health&lt;br&gt;&amp;nbsp;Records and Data&lt;br&gt;Media Storage&lt;br&gt;&lt;/font&gt;" style="text;html=1;align=center;verticalAlign=middle;resizable=0;points=[];autosize=1;strokeColor=none;fillColor=none;" parent="66zPg-nxCHK8hZNyKly8-27" vertex="1">
          <mxGeometry x="17" y="26" width="195" height="103" as="geometry" />
        </mxCell>
        <mxCell id="66zPg-nxCHK8hZNyKly8-61" value="" style="shape=image;verticalLabelPosition=bottom;labelBackgroundColor=default;verticalAlign=top;aspect=fixed;imageAspect=0;image=https://static.thenounproject.com/png/3383089-200.png;" parent="1" vertex="1">
          <mxGeometry x="1411" y="28.75" width="126" height="126" as="geometry" />
        </mxCell>
        <mxCell id="66zPg-nxCHK8hZNyKly8-64" value="&lt;h1&gt;Emotion Intelligence&lt;/h1&gt;&lt;p&gt;&lt;/p&gt;&lt;ul&gt;&lt;li&gt;&lt;span style=&quot;background-color: initial;&quot;&gt;&lt;font style=&quot;font-size: 18px;&quot;&gt;Natural Language Processing (NLP)&lt;/font&gt;&lt;/span&gt;&lt;/li&gt;&lt;li&gt;&lt;span style=&quot;background-color: initial;&quot;&gt;&lt;font style=&quot;&quot;&gt;&lt;font style=&quot;font-size: 18px;&quot;&gt;Develop a sentiment analysis model&lt;/font&gt;&lt;/font&gt;&lt;/span&gt;&lt;/li&gt;&lt;/ul&gt;&lt;p&gt;&lt;/p&gt;" style="text;html=1;strokeColor=none;fillColor=none;spacing=5;spacingTop=-20;whiteSpace=wrap;overflow=hidden;rounded=0;" parent="1" vertex="1">
          <mxGeometry x="1384" y="165" width="248" height="148" as="geometry" />
        </mxCell>
        <mxCell id="66zPg-nxCHK8hZNyKly8-52" value="" style="shape=image;verticalLabelPosition=bottom;labelBackgroundColor=default;verticalAlign=top;aspect=fixed;imageAspect=0;image=https://static.thenounproject.com/png/5625314-200.png;" parent="1" vertex="1">
          <mxGeometry x="858" y="34.75" width="118" height="118" as="geometry" />
        </mxCell>
        <mxCell id="66zPg-nxCHK8hZNyKly8-58" value="&lt;h1&gt;&lt;font style=&quot;font-size: 24px;&quot;&gt;Data Collection &amp;amp; Preprocessing&lt;/font&gt;&lt;br&gt;&lt;/h1&gt;&lt;div&gt;&lt;font style=&quot;font-size: 17px;&quot;&gt;&lt;div style=&quot;font-size: 18px;&quot;&gt;&lt;ul&gt;&lt;li&gt;heart health records&lt;/li&gt;&lt;li&gt;medical histories&lt;/li&gt;&lt;li&gt;patient feedback&lt;/li&gt;&lt;li&gt;&amp;nbsp;social media posts,&lt;/li&gt;&lt;/ul&gt;&lt;/div&gt;&lt;/font&gt;&lt;/div&gt;" style="text;html=1;strokeColor=none;fillColor=none;spacing=5;spacingTop=-20;whiteSpace=wrap;overflow=hidden;rounded=0;" parent="1" vertex="1">
          <mxGeometry x="822" y="154.75" width="214" height="176" as="geometry" />
        </mxCell>
        <mxCell id="66zPg-nxCHK8hZNyKly8-59" value="" style="shape=image;verticalLabelPosition=bottom;labelBackgroundColor=default;verticalAlign=top;aspect=fixed;imageAspect=0;image=https://static-00.iconduck.com/assets.00/reinforcement-learning-icon-2048x2048-3zhxnnge.png;" parent="1" vertex="1">
          <mxGeometry x="1149" y="33" width="119.75" height="119.75" as="geometry" />
        </mxCell>
        <mxCell id="66zPg-nxCHK8hZNyKly8-60" value="&lt;h1&gt;Reinforcement Learning&lt;/h1&gt;&lt;p style=&quot;&quot;&gt;&lt;/p&gt;&lt;ul style=&quot;&quot;&gt;&lt;li style=&quot;&quot;&gt;&lt;font style=&quot;font-size: 17px;&quot;&gt;Develop intelligent agents using Q-learning&lt;/font&gt;&lt;br&gt;&lt;/li&gt;&lt;li style=&quot;&quot;&gt;&lt;font style=&quot;&quot;&gt;&lt;font style=&quot;font-size: 17px;&quot;&gt;Train the agents using pre-processed data and reward function&lt;/font&gt;&lt;br&gt;&lt;/font&gt;&lt;/li&gt;&lt;/ul&gt;&lt;p&gt;&lt;/p&gt;" style="text;html=1;strokeColor=none;fillColor=none;spacing=5;spacingTop=-20;whiteSpace=wrap;overflow=hidden;rounded=0;" parent="1" vertex="1">
          <mxGeometry x="1092" y="152.75" width="268" height="188.25" as="geometry" />
        </mxCell>
        <mxCell id="66zPg-nxCHK8hZNyKly8-66" value="" style="endArrow=classic;html=1;rounded=0;exitX=1;exitY=0.5;exitDx=0;exitDy=0;strokeWidth=3;fillColor=#e51400;strokeColor=#007FFF;" parent="1" edge="1">
          <mxGeometry width="50" height="50" relative="1" as="geometry">
            <mxPoint x="714" y="81" as="sourcePoint" />
            <mxPoint x="829" y="81" as="targetPoint" />
          </mxGeometry>
        </mxCell>
        <mxCell id="66zPg-nxCHK8hZNyKly8-67" value="" style="endArrow=classic;html=1;rounded=0;exitX=1;exitY=0.5;exitDx=0;exitDy=0;strokeWidth=3;fillColor=#e51400;strokeColor=#007FFF;" parent="1" edge="1">
          <mxGeometry width="50" height="50" relative="1" as="geometry">
            <mxPoint x="1005" y="87" as="sourcePoint" />
            <mxPoint x="1120" y="87" as="targetPoint" />
          </mxGeometry>
        </mxCell>
        <mxCell id="66zPg-nxCHK8hZNyKly8-68" value="" style="endArrow=classic;html=1;rounded=0;exitX=1;exitY=0.5;exitDx=0;exitDy=0;strokeWidth=3;fillColor=#e51400;strokeColor=#007FFF;" parent="1" edge="1">
          <mxGeometry width="50" height="50" relative="1" as="geometry">
            <mxPoint x="1292" y="85" as="sourcePoint" />
            <mxPoint x="1407" y="85" as="targetPoint" />
          </mxGeometry>
        </mxCell>
        <mxCell id="66zPg-nxCHK8hZNyKly8-69" value="" style="endArrow=classic;html=1;rounded=0;exitX=1;exitY=0.5;exitDx=0;exitDy=0;strokeWidth=3;fillColor=#e51400;strokeColor=#007FFF;" parent="1" edge="1">
          <mxGeometry width="50" height="50" relative="1" as="geometry">
            <mxPoint x="1551" y="83" as="sourcePoint" />
            <mxPoint x="1666" y="83" as="targetPoint" />
          </mxGeometry>
        </mxCell>
        <mxCell id="66zPg-nxCHK8hZNyKly8-18" value="" style="shape=image;verticalLabelPosition=bottom;labelBackgroundColor=default;verticalAlign=top;aspect=fixed;imageAspect=0;image=https://img.freepik.com/premium-vector/artificial-intelligence-ai-processor-chip-icon-symbol-vector-illustration_136875-4092.jpg;clipPath=inset(11.67% 11% 10.67% 11% round 6%);" parent="1" vertex="1">
          <mxGeometry x="1680" y="37" width="203.44" height="202.57059829059827" as="geometry" />
        </mxCell>
        <mxCell id="KiE-p9byAmrBn2ZulwZ0-2" value="" style="shape=flexArrow;endArrow=classic;startArrow=classic;html=1;rounded=0;entryX=0.25;entryY=1;entryDx=0;entryDy=0;exitX=1;exitY=0.5;exitDx=0;exitDy=0;fillColor=#2f7fee;strokeColor=#6c8ebf;" parent="1" source="66zPg-nxCHK8hZNyKly8-20" edge="1">
          <mxGeometry width="100" height="100" relative="1" as="geometry">
            <mxPoint x="1584" y="480" as="sourcePoint" />
            <mxPoint x="1746.8600000000001" y="239.57059829059813" as="targetPoint" />
            <Array as="points">
              <mxPoint x="1747" y="469" />
            </Array>
          </mxGeometry>
        </mxCell>
        <mxCell id="KiE-p9byAmrBn2ZulwZ0-6" value="" style="shape=image;verticalLabelPosition=bottom;labelBackgroundColor=default;verticalAlign=top;aspect=fixed;imageAspect=0;image=https://w1.pngwing.com/pngs/216/859/png-transparent-world-symbol-internet-blue-circle-line-area-logo-sphere.png;" parent="1" vertex="1">
          <mxGeometry x="470" y="458.03999999999996" width="82" height="63.91" as="geometry" />
        </mxCell>
        <mxCell id="KiE-p9byAmrBn2ZulwZ0-7" value="" style="group" parent="1" vertex="1" connectable="0">
          <mxGeometry x="584" y="613" width="111.91999999999996" height="75.95000000000005" as="geometry" />
        </mxCell>
        <mxCell id="KiE-p9byAmrBn2ZulwZ0-4" value="" style="shape=image;verticalLabelPosition=bottom;labelBackgroundColor=default;verticalAlign=top;aspect=fixed;imageAspect=0;image=https://png.pngtree.com/png-clipart/20200710/original/pngtree-cloud-logo-vector-png-image_4135134.jpg;clipPath=inset(31.67% 22.67% 30.33% 21.33%);" parent="KiE-p9byAmrBn2ZulwZ0-7" vertex="1">
          <mxGeometry width="111.92" height="75.95" as="geometry" />
        </mxCell>
        <mxCell id="KiE-p9byAmrBn2ZulwZ0-5" value="&lt;font style=&quot;font-size: 17px;&quot;&gt;CLOUD&lt;/font&gt;" style="text;html=1;strokeColor=none;fillColor=none;align=center;verticalAlign=middle;whiteSpace=wrap;rounded=0;" parent="KiE-p9byAmrBn2ZulwZ0-7" vertex="1">
          <mxGeometry x="27.960000000000036" y="38" width="66" height="30" as="geometry" />
        </mxCell>
        <mxCell id="0_kUKvZpLYJWTEZ_aIxn-1" value="" style="shape=image;verticalLabelPosition=bottom;labelBackgroundColor=default;verticalAlign=top;aspect=fixed;imageAspect=0;image=https://w7.pngwing.com/pngs/419/996/png-transparent-search-encrypt-web-search-engine-encryption-duckduckgo-web-browser-others-blue-logo-shield-thumbnail.png;" vertex="1" parent="1">
          <mxGeometry x="562" y="454" width="72" height="72" as="geometry" />
        </mxCell>
        <mxCell id="0_kUKvZpLYJWTEZ_aIxn-2" value="" style="endArrow=none;html=1;rounded=0;exitX=1;exitY=0.5;exitDx=0;exitDy=0;entryX=0;entryY=0.5;entryDx=0;entryDy=0;strokeWidth=3;fillColor=#dae8fc;strokeColor=#6c8ebf;" edge="1" parent="1" source="KiE-p9byAmrBn2ZulwZ0-6" target="0_kUKvZpLYJWTEZ_aIxn-1">
          <mxGeometry width="50" height="50" relative="1" as="geometry">
            <mxPoint x="740" y="443" as="sourcePoint" />
            <mxPoint x="819" y="443" as="targetPoint" />
          </mxGeometry>
        </mxCell>
        <mxCell id="0_kUKvZpLYJWTEZ_aIxn-8" value="" style="group" vertex="1" connectable="0" parent="1">
          <mxGeometry x="398" y="947" width="226" height="205" as="geometry" />
        </mxCell>
        <mxCell id="0_kUKvZpLYJWTEZ_aIxn-3" value="" style="rounded=0;whiteSpace=wrap;html=1;" vertex="1" parent="0_kUKvZpLYJWTEZ_aIxn-8">
          <mxGeometry x="14" width="206" height="205" as="geometry" />
        </mxCell>
        <mxCell id="0_kUKvZpLYJWTEZ_aIxn-4" value="&lt;font style=&quot;font-size: 18px;&quot;&gt;&lt;b&gt;HTTPS CONNECTION&lt;/b&gt;&lt;/font&gt;" style="text;html=1;strokeColor=none;fillColor=none;align=center;verticalAlign=middle;whiteSpace=wrap;rounded=0;" vertex="1" parent="0_kUKvZpLYJWTEZ_aIxn-8">
          <mxGeometry x="9" y="5" width="208" height="30" as="geometry" />
        </mxCell>
        <mxCell id="0_kUKvZpLYJWTEZ_aIxn-5" value="" style="outlineConnect=0;dashed=0;verticalLabelPosition=bottom;verticalAlign=top;align=center;html=1;shape=mxgraph.aws3.classic_load_balancer;fillColor=#F58534;gradientColor=none;" vertex="1" parent="0_kUKvZpLYJWTEZ_aIxn-8">
          <mxGeometry x="75" y="40" width="69" height="72" as="geometry" />
        </mxCell>
        <mxCell id="0_kUKvZpLYJWTEZ_aIxn-6" value="&lt;font style=&quot;font-size: 16px;&quot;&gt;LOAD BALANCER&lt;/font&gt;" style="text;html=1;strokeColor=none;fillColor=none;align=center;verticalAlign=middle;whiteSpace=wrap;rounded=0;" vertex="1" parent="0_kUKvZpLYJWTEZ_aIxn-8">
          <mxGeometry x="67" y="118" width="85" height="30" as="geometry" />
        </mxCell>
        <mxCell id="0_kUKvZpLYJWTEZ_aIxn-7" value="&lt;font style=&quot;font-size: 16px;&quot;&gt;CLIENT VALIDATION&lt;/font&gt;" style="text;html=1;strokeColor=none;fillColor=none;align=center;verticalAlign=middle;whiteSpace=wrap;rounded=0;" vertex="1" parent="0_kUKvZpLYJWTEZ_aIxn-8">
          <mxGeometry y="166" width="226" height="30" as="geometry" />
        </mxCell>
        <mxCell id="0_kUKvZpLYJWTEZ_aIxn-10" value="" style="endArrow=none;html=1;rounded=0;strokeWidth=3;fillColor=#008a00;strokeColor=#005700;" edge="1" parent="1">
          <mxGeometry width="50" height="50" relative="1" as="geometry">
            <mxPoint x="426" y="487" as="sourcePoint" />
            <mxPoint x="478" y="487" as="targetPoint" />
          </mxGeometry>
        </mxCell>
        <mxCell id="0_kUKvZpLYJWTEZ_aIxn-14" value="" style="shape=flexArrow;endArrow=classic;startArrow=classic;html=1;rounded=0;exitX=0.5;exitY=0;exitDx=0;exitDy=0;entryX=0.5;entryY=1;entryDx=0;entryDy=0;fillColor=#76608a;strokeColor=#432D57;" edge="1" parent="1" source="0_kUKvZpLYJWTEZ_aIxn-4" target="KiE-p9byAmrBn2ZulwZ0-6">
          <mxGeometry width="100" height="100" relative="1" as="geometry">
            <mxPoint x="917" y="731" as="sourcePoint" />
            <mxPoint x="504" y="554" as="targetPoint" />
          </mxGeometry>
        </mxCell>
        <mxCell id="0_kUKvZpLYJWTEZ_aIxn-15" value="&lt;font style=&quot;font-size: 18px;&quot;&gt;STRUCTURED RESPONSE&lt;/font&gt;" style="swimlane;whiteSpace=wrap;html=1;startSize=56;" vertex="1" parent="1">
          <mxGeometry x="781" y="433.47" width="200" height="313" as="geometry" />
        </mxCell>
        <mxCell id="0_kUKvZpLYJWTEZ_aIxn-17" value="" style="shape=image;verticalLabelPosition=bottom;labelBackgroundColor=default;verticalAlign=top;aspect=fixed;imageAspect=0;image=data:image/png,iVBORw0KGgoAAAANSUhEUgAAAJYAAADsCAYAAACWuF9FAAAAAXNSR0IArs4c6QAAAARnQU1BAACxjwv8YQUAAAAJcEhZcwAAEnQAABJ0Ad5mH3gAAH+vSURBVHhe7b0HmGXHdd95ut97nfN0T84RMxhgABA5ZxIECYBJFEVJtmRJ3rX9yWG93+46ci3bsnftXXn1WWtZ9ipQzARJJIIJJHIcAJNzztM59+uXev+/U/d2v+7pmcH0ADOcmT7d9e69detWOPWvc06FW7dkRGTTNE0fMpVGx2mapg+VTpFYYxfF3iXRsfhsmq4EOps6Ox0eSgoTgFXwX7wmAqsk+j19ZL/0dDYunYku2UJPnSai4FQaGWVLQIcoeiAAK35a98JpQUcgxlWJfnmIR0usVF6XJo9HCzc1Kjmfhy9NosQjJdT/6JWfxceAinA2Hli6clUYhx+9l9NvDCwIU6w0uh37XWI0MsaGcyeV+QoEVqBiYMUUzse4GfM28hGvJwFWXg5g4bgRPyBwebjiBC4xcnBNhVTmqT56qdO4chfXfTE2cEH4xNcTgIWUytpIYVguo2cLIViJHigIuQWU4iUMrGk6Z6Itjm+Pof7DrwAENkoSOiatpDTp567dxoClnxJJq/yQFfJpy+fSVihkXQOgP0e4lc9bopRUQrTTdPmT5MkEElzcj59SK02kHFCJZJnOy3SeCkAbA1YkrTJ9lssOClhDklBZK5XxVmoJhJcAl9eDhL0SgUWZp1puKuGUGrokyEvsWR8rf9yZKzgYElYqUCWS5ZGrEN4kvaTeFJoHZFONZCw72C1QDUhCDetmkFCliDdUIehyIzYkcOXQ+Zb5EgaWsh3bSmNmfAQsuZw0WYkkVakAlUzJlVX5dUmhkNezekCgsuyQDQ52CURpSamssMijikYhkFtOrhvPh8mXJnmjihh7ruS8k+S/FGlMFRbb16AtACs/UqojSElZaarSyitqLFFW6ZrOw6HrRkZyOiU4TEQ6RcDCzw354BcYfCW5iB+T3ju7G7lEeRYkVXABVNF5hIVTHI2PICLZWOrqydNysquy/ZZJ9+hy2CVWqSSTD4i6o9XpOXkE4+1KIpXZJdbUCHkfGaeXHAEpKAaWAOPXkNBhBYEhP5K0PBIrWWVllXWWKJfE4nbsgh3vKAouvkfcEZjGY/dSc1P949nzKfelyjPyPeYcXkVYcF+dj3npOjLZo2ZENPyOHeOzYoojvzTd+RGciBk8mZs8zeCYFpnM/5fdedl0GqZ1cIHGUIEs1h/lCwyKbspvZCSvU5n2UoXZTJ9lhnvliSrMySHsFExqEOfPqYPoz15ypFyfR6ejUDiTKoS50emkxHTYGQP8UlIAVsi3Q2vUtopZiW+p5QsJV4cliaAKS8vVM4yBNZIXsIb75AKwpDktgfHu9REBC+RGyvOSo1HVPjU6M7AU/RmQFXrUlx6waC0FzzvEmRzgkroLpUHYCCkAqyBgJSsjYFWzuoHhhgCsXLrP8pJaJW68q4cYASvIrSCxiPFSNt4pK+yKQUbZRhgALknKN6njGCMpv9FTlrNczioSOevvOmSZwQFrqGux0qpmdXGqLZ+Q8ZpQfPksMcglxENS0nMJ0lL8tMhLmOCWSy2/CMdwLk5JjeEsUWnJynoZ7zVWkh/JCScqfH7IckO9PvJeGvUKYSxRIPzCKCtR4RMq5dKiwIoSykWjicDF+AsuX1JphdIKnUu0U76RjMqPOZARUHKWyKmXnG61oztftMGuDlu6aK2Vz73WCsm5Npwqs3Sp7heyVqEWXYZayAuopcOWTzHnmhT3mUO79Ii6pra91pHKQktc/y6v3Find6jGI2AlAFZFre5dIRQaCKwY76J2pzPdzWcskU9buaR3VWHQagp9VlvotUq5Muu3wdYD1nN0r/WfOGD9Jw+YfqQaBqxyZNDKFL6iVOaD4inkw8qQkgS2B6riUmyI50dXFLBocUhe1F18jNU6wCopAKwhSZ20lZWmLSHQ2HCnAHTCrPOQDbXut9KBdksN99hg20HLn9xvNtBqlumx8sKQwMdsRaxqadyko5YcgfdKoitGFeZVwUw9uO1YZGe5YU3nRPdkocskUrkLaQGqywp9Jy072CbgDFi6t9s6j+22Qv9hSTYGj6utpmWFVc1Za9mqRivU1bkKqKhssFRZvVhVZRlJsGyp4pS6wAS7FGmqqvAKAhajw5MDK/R6ZXR78WQT9bVb77Gd1n54h+UkkSpLhi2RTdtQ11Gd91pFUiDNyYYqn2nZyrnWU1ptudomq54xz5rnLbf65oVico0NFfImU0sWHDY8CygvPZoqsK4YVQgzXN35+Rij3FjXEVuI6QmfesFfvcD0QJ/1yVDv7zxpJUMdsrX6TXLIqkvUFyzNWFm+VxLsuGW7j0rAnbCR4QFBV4xWV9qVoVcERjspXll0xQArdJFd9vplqOoALiCHDMv6kJ5cZbU1zJpt8+bOs4b6ekuJS6WZXgdTOUMPw0NSj/3yw7bqs/ryvM1uqLY5zY1WU1ujaKOeZSkrKwU1AHuF0RUDLKRV6UjeB/hwyCzI4SYgjJQy5CDnQwNiS3WD1S9bbbOXrDIrq/ZwSRawlVQIjOV6JmkZSTWGL2Y01NqCxYulClvMyqtcUkkJOpgTijssIbmy6MqRWC6XgsQKLgAL8mEHAau0rNJKAEZKrqLOrGm2VbcssMqGmW78ZwolNphL2FA+ZbnSCtkSlVZVW221TY1mjU2SdJJWiZRAF8cuOOYFsLOM2l+OdMUAC5nh01NUdgwun/sCAiOWyxcsp/rPSFoN58WWgkzu0irLJWssLUM8k6qzTHmjZSpmWlpusKzR+tTz68qO2EBGcag3aMlKxZWSDBOEwaoSTOQl1aaBdTmTQyuciujNuATjiMpiCXYpaFCPj+kdqUVA0i8J1TWsjqJV2ECizvqTzdaXaLLeRL31C3DpRJWlJb0ciHIZqVKfvheoAG5Kzg36K4yuGGAFW4oqxoXVBgFU3i+0ZEk4lhTkHINijQz5dDZv/VmzgdIaG2lcbLWLr7cZq27T8ToraVoscNVaZ0Y9v1yZYFph2dJKy0utAiVGzhRJdLyy6IoBVoANVUyRg+RiHMZ9ZdSX5LNWyKatkOMlEoAgx4BpKmU1jc02Z8W1Nv/qW2zW9ffaDLm5195pzcvXWdXsxVZa22J5Sa9cslpCq9JGZGeRBC+jKFKh+soD1hU3QJpwCygnMMUT0YLXSKklZB/lZZxTQmlDASKtH7mhbuvvbrWa2nL1+GTQjzQJbwJkYlBh+sSSAT3QIPzMkP3VZIOyyfSQJa3fajPi4bCAJaBlBdBLkajrYIXqDFH+0Q6QhhYfU0i4+C/2K3Zkh+eK3Zlo8lhO785GCqOGEtNYXsJvQRIrl0lbLjts+cyw5YaH1chy6h3WWM2chQKVen2pBssnq6xQJvBUznA3UlovppZLUsmJyYW8nmPKB4bzcq8n8UHy92FQXKZiR0lDJyUGRPCPCb+JDoqfnxpNAVhxYvFRGaHCMFZp6aX0sDJWmiyx4WxGUkKtO4kxHBVNwXG8mh0XNZtTq9ZZQfZNIil5oufzhZylKnjLVr01KksxkY6bPrrH2HYyxQKznO5n/Tn8wn1Sjc55yVZplys/5aWY1TkbTg85q0vLqiyTY8yJtViY8jylHCUVryRciSRUviBJlWyybIl6feoJpgU2ntVN6x9MWMYEuLImtValXxiyikK/1STyVqbEGdEvlKUERknLnPIkSZdKKF5Kq3NeAPZZSonIhDoOyALC5bLKp55Npcr8CD5HVKYUU0nqZaZSSb9OJsRwZZd4lCkBWjwpTSpcme4Rxm+qasRf8TSpNErlNyK7kSpLKo9eZeJAWEqEo1aoTmxQEubq3GmKEutUQk5RiRzLystVeRmrrqlx5gylZbdQy2JSQkwuFUOyOTFPBS0rr7CqanXnxcyk1MXwcEaASFi54hgcGNCzaSuvkIjVM0nFBZWI08QznMn4sbK62tKSMAkxkzDJZEpxi7EwRWlmVVkZpJCkEaiurWuwsopq+eWtgrEnhc3JUK9UPrCpyO9I1DvMqXfY25cWCGutv3/YKpRWVpXb0zugOOqsvKbZMnnBVfZYVWWZlakhZNMDlh1OW5ZhhvIyqYcKlUf3BDKk2rDyCsfKK6uUbs76+vocBKUqV1LgqRTfcuJPV2enl4/Vq1yDsITuj+i6RLzj5RfKBW9SFbyFnLTBoUGPP6cyu7/KAzjhS0a8zeUKXvakJGxWPKcRBqKJR46W7zQ1UEFTsLH4jRMOGaFr7WfKENKhrKxclVhQpuWra/jb0dFhbSdPqmBZqxRQ5s6da5VVFTY4OGC1tbViaNIGBCSYX1EldcNcnSqnSpUiDllfd48nXyEghnRKnYEwr6ysTM8O+rMEwgYijRxAV1jC5NViU5JwMBa+kRZveNfU1OpewdICcI0qtK+/z+rr61RhaflLpakyAUBaDWVoiDDVXsmVyvOQAJERWKurqyimnpFUUFoFGes8S6OisWXTOuftYAWiMQGCEcWRkQ1G/CnlNa9nh1Vel64qYylSSWEGBwc9flPZRlRe8k2DzWK/iQcAh3QhnlUKlqyocFVOIy1jPgq9wZunsoPKyiqUJ8At6Vqhhqo6LiDRorp0WSObiT6tM5xnvX5V6xRSaInr/0w21nkAK0TOURH4FUwjnazUBQVAUlDhb7+z3l544ed26OB+B1aVKmrN1Wvs4YcftmuvucZbKZIJgNByXZXpmBRzqURaZVOTbBqlMyRG40fY8spqG+rvt061bMICEoA3LKaTkWw269IrITWVSFCpAtSgDGv5VdXVq8wF6+/tcwBQgt7eXusf6LOW5hkCfbmue6yxudl6FH9FVbUDsLKy0jrVSMoFDhoD6QZAACzxTXzCjzThB9KmkJMUl3oC5MMqp6tn3asUADgH1PX19V6unp4eSdFKBwz5J8zg0EBQlQIhYKLsLm30LFK6TGGRhDyPKi1FcsthWmRljgDeBEMgAgDAAxLCv54HUFJ/6EUwEGpRhxhY0NSAlfiXX/kXX/GA6iXR1UYX0012OCnCAKMoUh1JPI54lPDmR4lyTNDdVrJ9/QP28suv2VNPPaNKKLcHHrjf7rrrLpcMb7zxpu3avdvmz19kjU3N3kqRJmmBokItmF1MiKOiAmmAWpO60f2MQFtbWy/pIYbpr39gyJ597nl76831tmb11VZVJXUm6YAaZDDBmYzYF8OROJVSfVlJU7UnHZFokhBqBJTohRdesOeee87WXX+dq3MkL0DgfEgSi8YCaOFllVQijQGVA8BoDDXVtV5+7pdKlZJX0kgKVDQ21H+1JF1K+YGfqCekOitNkerktUKNDpTiT54Gh4asrr7B8y9kKSzqLu3PArR+STDyhHmBCYEJgCSkFZWXVyodVbriy1BmVT49X85pTKhhl/6KJxCg4TyAj2sHnN/WT4QBv/Sz6JZ+4bVPi6Ukbdkc5NyBFf8Wk3z0z3ANTMV4pHXv3XvAvvf9p7yAv/e7f9vuufcemzd/nl21Zo23/La2Dps3b57Nn7dAUqfbTpw4aQcOHnKw5FXxrAygEtraOu3IkWNq2cO2Y+cuSQhacpUYmrPt23faSy+9bMePn7Tly1dYirdw9VyXVOfhw0dt//4DkpqoMHWBVSknT7Y5SFJiAKBqbW1VeoPW1dVtP/zhDyVd35E0vVp2mNSzJAF2XKUqO5mqtD179kmi9HmD6e7utYaGJleRIZ2DdvTocW9clQJ3QRXY29Nv+/BX3mkYgH5gMK1ytqm8IX/ke3hYkiYCIxXU3z9kx44dlzshW67fuiXFZs2a48Bpa++UxOySNO3357u7+xSvJIQaE1Ksq6vHDh0K+SFvZeIH2wwNqiEeP95mhw4fcx4ApnJJQyRrXKEcxoAVeU4RWB/KOBZXisR/AAP2YFr6/bXX3rRvf+d7rvIef+wJS5Yp1tyQKqraRf7evfts7pw5EqNmz//weXvzrbdcqlTLiL5q1VX2xS9+0c//6i//yvbs3aPnAFmrt84vfP4LHubr3/imPfnkkwJK0p544gn77Gc+66392WeftV0CYU5SYtasWXbf/fcKxHPtJz/5iSqw1B599FFrPdlqL738kq1YsdKOHjuieL4jMHTb7XfcZr/3t3/HFi9aaDNmNlsv9p2V2Ve+8q+8rBS1Unbgr//6l237tm3205/9xAYENhi/7tpr7dFPfUqNqdx++tOf2IYNGyw9NOxLcD75yCfdH8nY3t6uchcEkk4Ba9juu+8++9SnP+V5e/HFF+1lNZZWlTUlabh48UJ74jNP2FVXrbK3337Hnvzuk84DytbZ2WU33niTfelLX3K769vf/rbt2LFDIMvaNddeY489/rjVyGZ85aXXXHuQz0qB7brrrrGHHrxP+WqR2lT9h1oOPUEvIfUNSapNQRXGT38ohFglHZjHebekAMeW5pmyAyR6XW3IHpDcRxKtWXO11GCTvfrqq26DLV++0r78a79uq1auUqX8zF5//Q2FHbFt23fYL37xoiTJWvvko5+WQTtkTz/zrPfeVkv6rVy1yubOm28r9FxW6vLnCvve+xvsatlv995/v7Wp8n7045+od9dvzc0ttnHjJkmn5+0HTz0tidVm8xfMt+uvu96uvXadJFWdKvAqSaNGqaB668Z+Q5VJfWzfvsteefl1sTNhN990mx0/1mpf/etvqNVX2MMf/5QtWbzC1r+7yX7+wisC9T57d/0mqfI6u/22u8WcpCRQq/iRUDy7bf36DeLLXPv4xx9VWs3285+/bJs3bRdQd9vXv/ZtlbvUfvu3fs8eeugR27p1pwDzPUmpIYE0J+C9Jluyxh555DFbtnSV8vSG7d6137Zt26U4tgmIy+3uux9Qz3REUu24gLbbfvHiy64+7733fps9Z64a/ev2zvp33eYENF5/uHA6ZYof/1CBFdOY8Z3yhOjZkGm63PRIENncR2q1t3cIQG/K1lpgn5G0eeihh+3Xf+M3bOnSZbKb3rY+GdeM06ySdPrCr/yK3Skb7Y4777LjJ05I7ZWpVV5rK1eutAULF9rNt9wqlQIAtsuOyLq0Q3oBkg6l069eHDbeihUr7BkBc+PGjaqAe+xqAfzGG2/04/z58+2xxx6z2bNnuUTA3qNBYIfJJLHr1t1g/+Dv/yO7//4HpdLabd+eg9bcNFtmRIlUkjoEhYQdOXxCvWJJNYEqPaiORqpKQLxdDela+dVIVZfZLTffbp954vP2qUefsF/94pfFj4SDA5AU8qX2N37zt+2O2++2z332V+zuu+639e+8L+nWqzyUWEvLHHvkE5+2e+95wD7xiU9J4lTYyRPqUJRVy0artcGBjMpeb7feepeDbMfO3W5iNNQ3urqFHzTOQ4cOqnECrAhQcsgmJNQHoSBIorB6ll5prC4/VGAhxomXXk6Fek3z5sku0PXuPbuss6vDx1FcQysve/fstR89/yPbrUIzXlUvSVEpSYcdWa6WVatuPb2yERbnybO2tkrMz6vyKsTIUh/kxKhTkiLGeegJhlevhtKDkpYdtmvXDtsnFUrXev78ucqTepLlKZs1s0V5wZCv8B4gO8l4D0q9urzAxPAEg5b0tjgnvzAQxs2WWm2R1BuSXcZ4Ur9UC2XZJCmIWqPy5kt6Ll60ROC5xSXujyUtUX9HZBNhn8H4lpaZktpBelPRGNxhfCsMjMbDIFwzHEP94bAzG5GmvLyhPPI8GoLxLVQ+khfQPPP0M/ajH/1ItulhL+vgQL9srKOSflvs2NEjNmNGozXPmCFprPI5kBxSfoSKz6dCHwKwlHiE8DB+w1BAyt2s2TNtydJFtmXLJvuZ7JB9e/daW2u7bdm8xb73ve/Za6++pkIP27IlS2z/vr22Y/s2qYujqqjdtmf3Llu+bIlLOcaUymRDpRiTEdAC2JSs0k0IiIxPpdUl7+xs93GvRQvn20K5Bx+4zz7/ucclpW6TxFtmM1ualM4e27x5o61du8Zqq6skLV+1dtkyxA/QqL1jR4462LMy3POSrgBsSNcAH2MXG6NChm+DKnfJ4sV2vXqRX/rSr9qjjzwiu2+VLViwwEGXktp/TPbWo5/8pAz7o/bWW2964wLESMu94seRI0fsvffec+DOkYqaO3eOwNqnPG6R4d7rnY9NmzcLfA1qVJWWKqMHmvOGBKgAHfExlsX1HNmsn/zkIy6Zjx8/LtW61ebPnW0rxMur16wWPz4jW+/jbguuXLnCqmUrBgDhMNSjcx29VsXfqdAUe4UTUosuGeH1XoYIVQQjWiQdjhw+LHBttsOHDtm2rVvtjddftxPHjrn6ueuuO9V6W1x9HTl8SMzeI0avdynz+c9/1kH30ku/UB4K9vFPPORjLwcP7pftcMhuu+1Wa1LLO3TogCpik0ujpWIg+T5wYL9U1TE7cfK47d69U5VcKqlYI9vmHR+rorJnzZpp27ZssZnK49w5s62nu9tbNACdL0N/pvKFtKR4SJGnn3nKAXv7bbf4KD6V3NvT5flBQu5WYzip9BZIOpKHV1992cs0lB5Qp2TArrnmaqXVbO+++44a0BH1Vvtsn4D+5puvC1CzBYhPuGQlvzt3bvN8bNjwrsLsso8//KDdfvstAuJB27lju2yluyW1amQjnvCGu3z5UtVhXrbaCyr3UW9oWdXnDddfK5t1udcBrk/mxw49T37nzpllc+bK/lWnyjtwXtOiuK79wuEl4jr4u7efhfAovuJeYcnUhhviiOPoRdEpqsJVk64ZJATzDY0NXtlV1ZWSAoOyOdISw032wAMP2oMPPmBNjY3WqDBUbrcqCUBx/9FHH7HVV610ycfg5hL1jFatXiljs19iv9SaJX3WXrPaR8JrJHmqayp1XqVKnWfLVyzzOGj5mWzGFi1aYHfeeZvSqvf4b7h+neyPWxR2vnIoVVRf6+EXLlwgG6jcpQGtm9acFYCqOIo3SMrVysPcebMkxWSr6LlZs5sdZH19PZJ4ZXbHHbfaTTd9TL2t2d6L7e3rFkPytm7dNXbLLTdJjZtt2rRB6rhZlTrL87N48QKB6uOyKxeLF3WyAZdK+uSso0OSVJX+4EP32r333SXpVO3qurm5SWVcKmBVi9V5GfIpW3v1aoFyjviPWaBevdK5XuW8+aYbpLqbJLUEdlUng7uYE3fddYfdcMM68UxAiAdICeB1qR/GzPxsasD6UKd0SBdwSSJ7YgmpgrRENFnBPhgaGLZcRoZweYWPNDNijX2DgcyoNaPEHLEZGD6AGFFGHTIHViGGMKhHQumhoajCc65yOKIKGPnGdhkUgOlyI0VTZWXKjdJRBVACn5dMMBKt3JNXtQaew1gnfqQU9hg2D1KQqaUUUyr682kSRv1lzDNSz+Ao5SUsZWckHAOZGYC8bjDAippCdRJ277599t/+259554ThkerqasVV5nkenT9VWjRCOj2lalTlFSkHPPfo+NCzJj3iDHmkF24CeOAN5U4PpZ0/qHemxxhJh/cD8nebjJkIga80IdPCeE6FAAdwKBp5D3vP4kctR8LF/ahthRTzGG5QqRVKkSWqfLihtPy8pnQgjjGwdM5tHSgkTPBnQxAVQEBRjyaVKA9h5I00gKEQoKLykBYYlLRMDFLKQkUN67pUUgJVS+cAici0BUykAgkDOLynovh8dp90KDhi1PesZ0WA0lAvEwaFfAoIJcwlMrLNdBQj/8wCMMGdUBjxxvkgo142HiPogAcQAUSex8DHH4onjQvq/XJOImHqhZHxUjuwf7+M+R977/OOO+7wBkYePQ6VxePQOXGEEX2ABFjCJDtx+ai50mZmYEgNzA1weC1m+2Q/ZYZx1Ieyz2u6zBMyaIskIl+ZrHioeEdK1CCNuUYABOd4KIQHQj5O5XfOEViFImCxN1Z+WMDy/bHCQjiko4s5OaJTYH4jJyKAiF/S5SSch4LCJCqS7FCBpSy441r3cRj7MBYm8rxLGUkMgBPOgyShFWccdGH+kFZOOkgD4i6TVGNYgPMgdeihhrk6/JJqoYCVgUV6U/ArziPn5InZgLhyyRcAI35wGTaoFfuj+CCGU3jOK1R/DhAHYwhH2R3Y+iNv5AkgtLW1+fuH9XX1HgaOcY+4aCAQZQhjf0xm07AAAtIQfoQVCZwzbMMoOkfKxjE0ppCfWKFRcbQRwtAQ4TVSS4JF4YgPbsYUPTPqoHA/aEvKFIUnXkDLDjvJsI1RKdsYxRuvGRuvZfrHbbzm63SISKIx3nitQOuNwDRNH5RUOaFFTo2c3xeD54gWhAoUVqz5xmujwEJDCCUCVcE3Xquysqo6X+c2BizfKlLAyhRvFRkk1iiwiF7G4TSwzpEcVOcBLDh/EXge4BPyHc7AA8AK18XAwsW7Jk8AllSh7KucnI3wAQEBSyKyVEzxv2Jg+dk0fXD6EIB1EXiOhhoHrEhaBchBxcBSx0iqsDzaKjKSc9HDUf4DlNzHf8fRhS/fZUIRc6fkLg65tlL6AVQxmOKjfrGvOGKw4Rk7Dur16HFZdVKFSCs2uA2qUL0o16kEwgmDeijYWOHhabr8KcA6gGsMVCJARS9cvcG8jHf1t6UKK325dqLcVWEErHzaCpkBG073OLDY7ALjvRhYAIreUUhsmi57or79JAZWfB5ujKiXXwyskmSFlUfAGlOFjH/g0JvuHZ8TJaAqvgdup93l7sL2S7jieg/nACrGRZBcET5Qi4QcYbBD/8aC+kLGspJYeanFEUkwBhRHPyuH6CtIWiHCFM00XRk0VtPxWXyUoeSGu4BUWvRZuVSlJFdZBCwf+2OQLCts9QtYA5bLsiyFQVKAJSQy1MUAXthPkQem6YqkMCbg1hZajJkLASshUPEhTL6yil8RsPTDp3sZ3pe0yuUErEKYpmAzfEaXccxdTdOVRHF9F0ksecXAKi3lpWKmq/h0b0p+STnmGZ10znMAqwQwyfGxcQcbEcsxz+QBiTBOZJoub6LOqX9OqfOJ9R7fD5IrvAqPY9wTcomlS48jp8cjcIFL9wyGmUd0SuTT9MHofPjmFXMRiHTjtGNgFZcDu1vXklw++R3jRGAbB6wQh3SoSy08cXgWAyv+naYPThMr5FwIbl9Mjsdpx/kfK4v/+o9b4v4bhy8pOLJ0hhv1Z6wKUBV7BmCFx6ZpmqAIOEioGBsRZMaAFfn5qS8RiTxFYUgsLMCInpumK4TOVNfxvdEwY5AJwIrOneLOZDgWE4/HqDxTctM0OU3k5weli8drr/EPkvwkRROwsL6KKYbUZIxQKvKO4DVNlz3ReYtOT6GiG5MImgkSKz49VV5Bo49PdnOaLkM6E7Cg+OZZgRXTmZDjQ2PTdMXQZFiI/UBCjIbx4U4DrDPReMN+mi5vGm/2xPVeDCxoov+UgEXwc3xkmi5hAlrFAJqs7k/1HwesYmw6TYhjzEabLPJpuvzoFERMoGIcnA1YZ8OMAk3DaprORpMDK/aJj9w4G3in6Yok0DPacyzCyLlLrGmapmIqxsuZgUWvD+KKWxOfZM5wmqapiCYRRkXAYnxKpy7bwnV4gJ/YcUPuA43zT9OlTw6ACRRhAPLeXNF1THqsCFi8jBhLK7x0zi2/zTG653FMiGiaLk863eK+UVe8nCq+5qjfU4EFoOQK7CPKhhfs38DQfkgkTPZMTGyaLkfyula9j03wxQCK3AjbP7EsWY4lyeyeEoHrFGDxFSy+XsUx79sRsg5+RBEQhlVaYWXpNF0JJEj5exDU96mgAkTsjsNXL9hZujTJmvdoaXJY3QCoFEEhY7l0v1n0aTR2lQN3QG9UnfrbPJcesMImYmMUWmN8PkZhEPjU8oX9z680gkfBBAozxFjhER+dn7zBhUv6GzqJskqzZIXwVgawwqYgJSOZ8Jr9QJeV5Id0HS1P1oOECBuvcRkZ+ZcYsbkJjpx77iMRD17i0oRzXU3EkLzC5iijlxEAJye3GjiGwyVOzhGVl9KMAQvziNdUObIxSEmizD8cYGV1ZolK3qCPuOB2VcElVDDYLxfGBKJEtD0vmQrGcTJweDvUzXGOB+JnQqDT0uUFqjEaX56okBGBIXBTYPtw7+SF96LDDWlEXkh11YdnEfnue37il5ckuTSKXXR9euJmsRt7Jn5+MrpcQfVBCNzw4Qh2MoSCfhMBp+B5GrY5uC5tlhVU87ErprhUeOPGNkKJXHRfp9OgKqLAj6AcXWKh8aIFyQ6sGDAurSIG8cDpmHgpkpdHtT/qJpQODuBgSAym2BHUQ0ceE/lyJYLKCbDgooL7ZcQd8TH4jskj3QohTqVLmHPj1GB87ecUKnLy9K5JkaEaX+NieX4mdVhMo2n51eVL8UbFzrWId6OqMFzzMzkF4J3+/i87UbkOjKIijJ3rRBcRaxQ2uOJzBwjBCD7hHCL0ZFSc3uVIscAaBVeEIQErsIdfD8CfB5jIrEiSXabkW4Yn2JUu5QBktC4nJjDowtfos8xEFB3ZgYfODjwKW2pfgQRGxItgQkUustNHJRbksBlF00RYXdpEacaXaIwoG1+vz4kxfEmD40gyaelczo53dNi+Q4esravT+gcH1BQZ1yv4PuwAij0L/KvyiuR08V+uFAsh+Oeg4hidjwPW5U9SakUAiI1uDny5jFmKZGWFlVaUW296yE70dNpAPmup2mobygxbR1eX5QQiej9sws+G/oAq7mIT0Thw6cIZfaUhTnQFAavYahoDlRMAQM1JtQ0KQD2Dg9Y12G9ZSafKxgZrmNVi9TOarLe/zz+34l+38C9phM+e0HJHqQisxUlcaXTFAAsgjRufivxjI7yE79HIZXXVn0lbfzZjVl5myZoqG5Zo50vzLuwFNv82j86RWi72de1gJcJpcrpygIUDF9ERGgWXHMosJ3U4LNXXJcl0vKPNOnREFfYOD1prR7tVVVf7F7XY94nvMQIqV4c6TqQrUf0V0xUFrFGJxXWMBY7yGJbR3trebgcPH7GjJ05YR3ePdQtY7T3ddqKtVRKr1BobG8OHl/RI+NCTpJX3COPIpimmMwALZsXuw6OxhuzVO6kL40bFbnxuxtxkYSd3IW6eip713kyJFXTk80NtnZ02yPeWm5pt/rwFVlFWbn3dvZYZGLLq8ipbOHe+NdU3WDadMfUFrbKi0qcvguFelFYUb3F5JqeJYSZzZ6OzhQ3lPXca4/C5kOdCj3iOTv+9Qhml0ccC/LtP0bIZnoR1UyFXRXIwf4wZcaUE8uM4cSIX57iYRnVNfCymU/2SSrikkLMsYNB1XuUp4UOduby1d3ertyfpo2uM8lyBD0YOOWgam5psZlOjlaYHLaFrz6nSJoU4W5PlwHMb3YiXmIyS532yp4opCu+8iHqdo8/oeEr5CSfnl9G5/+IRhzkThfAhjvhcFOV1XINReTgbXTbDGZ+WKw2flWP5zAeQWFDx+fkSmYrii6OVG9ezcgo3wrweAHfTeYyKC/8BKKfeG7PvpXwsPHLSZ5aRf6eAVV5RYbNnz7YZjU1WkitYMjdis+saraWq1mwgbcm8wKn6TRRKLKGki9XqZORVUBxGx1H3gSiKeTT8ZA+fLvWYzilBkcKORhmeHXcZHSem6lUxwf/C2ljKAR8gCDDRr3+XJ3K0Sh1LfCls5HQeZuiC83MM5dhRmg/oYgM7/ni4xJEXnt3FR/J5G+rvt/6eHhvo67FMeshSulFTVWmVZUkrqIcY8nFqvB/cFdPp/CdSqKri0KOOfE/mJoQJVOx7Fhp9UNzx5cdTowsKrAhOyjcu5J/z0KzHAwg1HCoTcMUAC9JuvCPcZP6hWmLHJ399lDivHDBMgG2k3l15WcpmzmiyXGbY2o4fs672NquSX3NDvaXEnUImbeU6OTX+D+6cJmbIm/nZKZgNoujwgSkO70dHCydFx8nIMxacgyt2504XFlhRfsc5/EcLHjlnehHI5BcfAwhjF8A23kET/RhrkqRSenxjWacuqfLZrPGhjRbZUNhRDbXV1lhTrfMGm1Ffa2WkwbeqFYZv9U0W7wd1k/4p/vFOISe4D5fIS3yMXUwkhgMSxW5qdGGBpeS8I+Auas/eKcAMLHZxIYMb+52EqHw9cSqzxvuhCr0Hp0uGDHzYAMklNZgqLbX6mhoBqkmSqsHKuYf60z0fXMgzug6Nj/ODu2Iq9isOU+wPhVIHHk046s6Yi/0muxdcHFeg8XfGjlAcLgZV8XPnRhcUWGRyxJJyVFfk1JsY/ZKUjp4ldLv8Ofp3El3Xn0sBixkXKJhYSC3iC9cJVVSCSWSpR1IGYBwB0ggfOpexz/fZydnE+M6dJuY/jm+yeBXWRVZc7iLg4F18PZkbBWB49tS0J9KEPIyKzOh6CkTOLxjxef7hTN7Sw8ENpXOWyRZsWOfDwwXLZkcsmzPrHxj285KSlANP/bEAQAmcgYFB/xL8KMPFgJiBo8wUY8OXEkoUT07h02GJi/y5ly9IggGm0oQl5YyhBp6LjoAtJamVlF1WyPEFNEaupIyFxkSCT3sIas70kE6cJtdxXjxMfF1U0aPXUbBQf/xxVBoqYzabF1/ynk9eBI2leF555t5wJmuZTE48y3r54rwouPin53itysuv5/hUjVdz7MhDREh7l/jFRPiYis/Pjc4wjpVVoTC1g3UTxrFICJ+Jmflg1Nk7aJu37bbOjk6voGwmY1WVVRIQ6gEqynnz5+q60jZv3mA3fexjtnTpYssMD1syxfKUEevt67Jnn33GZra02H333+8V7uuo+Isq28EjSqVSYnrWdu7caceOHbPVq1fanNkzfX6PlysJ75pRD+Hn7JfESlVU2EBXt1WWp6y0usoGOzqskmkc3esfHLS6GTMsqyNATciPKZ2M1KaPxCuOtHqUZWXlsuPEJcUd5hUBs9JQIkwHJZIANaTNH/ngA1gp5auvd8C2bt0h4GRt1arVNnfeHAFpQFEUrL29w3bt2m3dXT1KN+VlqK+vt6XLltoMqfHu7i7bt3+fzZzZYosXL1SceTWMghoJYUlDrVZ8DCwKRwdljPLAhaJrwvAJHP5oDPLTvbj+He5EIMlaoOEnKi0RjWMl/uVX/sVXPOBITpkYFsBkW4yEXlh4rZ67UaQ6QuH33OnwkRP27A9/bD/84fP27rvv6/gje+utd8TI7bZx42arrqqxdoHuBz942q655loBaLaDgPRh5MnWVvvTP/1TVUzK1l13g5WyME9Mo6XCZAY4OQ4Pqwy6NzQ0bK++9rq98urr1iTjfJGYXVLKh7ElAwACwFLcqVS5A53rTHrYgQEgcjovL69Q5HyXT4xUmPSgGqAqq6qy2tKq/BLe/JUDHOl0xrZu2+Fxl1dUqUHwZSw1IEkV8gigcpI6gKhcYGWlBOl6Xrivsuzbf8C+8r//gT3/o5/a1WuusQULF1oml3Fw79q9x/7X/+Wf2BtvvmXbtu+wbdvEt02bFc+wLVy4yPbu22d/+Vdf9WmmlStXOS/KVLa430G6VGMqldS5hIZuBJAV03gPhEt0xoUf4xDhKpwhVa1UjTFVoXpQw3L/C0Rz5s61L33p1+zf/ps/tL/zP/5dW7Fipd199732T/7pP7c/+Nf/1h548ONWU9MgQGSU0ZQNDeesp29Q+VZLHkhbfcMM+3u//4/swYceEfPKLScxP5TOqrLUHlSUQT3XPyhgVFS7/3Cm4GHSiif+lh6gpK2hMpjCUT1L9aatV5JiUEBMpSr9g46Deh4G8Xx7Z491dPVZWXm1Krg+SlvAU7ocSWdYqnvHrn32ne/+wN58+12lI8k3qPwo7oQaR4WAxoudgJTGkJZ6BpQ4VF5SAACoNAIJQ1dnb7z5tp4fErirPFxScVLG3/iNv2n//t//B/s7f/f3bf6CxZLiz9v27bsF3lIvB+lQXkwPeIkUBPQAF0fDyEhbIN2DeSDUgbzYOVri66nRBZVYMK9evS5EdUHce/e992z5suV2zz332Pz5821G8wy1+K321ttvW21trUuvHVJlSI+6ujpXP51dXcpAUiCdZ4cOHVHL3SnmD9qGDZtcuhQkqt/bsNHWSyIePXZcrfiAx7N69VVSK7P1LPsNSGqJuft079Chox7P9u27JBH2unSprW9wSTmgyn9d0mHj5q22d/9Br+SWllkCUdalx375HTt+wg4ePOQA/fFPfmqvvPKqA2nWrDlqDIN2/ESr5wvVjK23Z+9e65B6LS8vt0qpfaQrEovX1E+ebLevfvXrduutd7gafPfdDXbttddZc8sMG+gfEGj6XMrff/+DduONN9ucOfNc0r3zznpbvWaNVZRX+vny5SvVaFfIBDhh699513bt2GVd4ht5qJZ6T8m0oFfsixu9dkWjlRqdcJBzbDhxETyjEH4M56dKrAsKLEQzhUP3t7adtLfffksifKFdpUovK1OmxODt27fZyy+/LEmQtxOtJwWQ92zDxg12+x23+7LhP/+Lv5CtNWBr1qx1lfB//J//0QFysq3dqmvq7KBA8v0fPGWHDx+zI0ePuapA/Xzsxutt8ZKF5EK2Xc56VVHf+vZ37cknvydwnLQDBw7bzl173C1avMQqq2vs6Wd/aM8880Pr7u23Pfv2e3oLda+2rsG++c1v2de/+U07dPiIwN4tvCbs7fXrbc+efc7k5pmzVLHH7YfP/8gbyYL5C+yo8vNdpXfy5AlV/nL3p8yoXgC2/p337O233rVPfeoxAeMq+9lPfyEg1NgNN94gAI0IkF32ve89pUa4wBolvXfu3G1vSarhf8/d96jhFez99zfaMjXW2bPn2HPPPWevv/qGdbR1yjbbKVOjWqp1gddFWFodgyQCz7iKjet6asC6oKowJ1shl8eukOiXaTJSkBrLpXWSF+AkRXTNF1yzMjKvu/46+82/8Zv2+S98ThJjk22X5AIgx461SoyHXlNavaKjR0+IWYvt059+wlXdj3/yM1eZv/23flfPflEdgoWuslB/qsXRRlJeUSljt9f6+gft+utvtN/6W79jj3zyU7Zpy1Z7TZU1ILXYP5i2JStW2ed+5Yuupnfs3CPQv+qqBhXXJfV400232mOPfdZu1PHeex8UeJfZLbfcbjfffKstW75KPE9IAq+3E5JcOyQ5WlvbJDnnW41A5faW6g213N3TK2n3mtRthVXIfquvb5JZUGcvy++knkGFIwkBz5uyS7/611+zv/7a12zn7t1255132eqr1+rZSi9fb1+/tbW3e4Nramq2Bx94SBJ7reJsVH6octmViguba+ybgpAyE6NmFFBTowsKrLIyhg1yUjdDApJUo3ruBXa2kV8uz9rNgtBeKqZX29Vr14hZq23N1WuoG2vraHfbBDsCD8BCK5k9Z6594pFHbe0161zVYltdc+06u/rqa2zt2mulSq53CcOzVAqMT6ZgKsZ0ylXOTQLBqqvW2L33P2AzZ8+1A5J6yoitUmXwreP1722U6pMkUtoDA8Nus+VkAy0X6D792GckPa+xWXpuptRfnQDBce68herVrpD0WCXpedzelkrauHmLtUiSXaO8AiBUMqsp6DHuP3BA0nWTen6d9vTTz7jUTUuKYaDTE8xIRbNmjLzPm7fAVq66yu6+5z77zd/8m/a5z39BIAxApXxIOdLB8O/o7HKVWlB+6+ADzFQYesD0XMeQFAOpGFBTB9cFBZa0m9StCuJjUowRkXFajwDHoGQua6nSEquQOKuUaixkhtXLzlt9dTXizkfDywU8tlhKSE2XJdTrUdjmJjFMoGRuL59NWzYtgx8ADw+6k3lsLGbARvNhAtkX2FKMCVERqCGGPHL03pQOGW2XGn75xRdsz+5tijtnTY01ikOdATWKmioZ42XKY3lSKqlG8QyqNzmgnqJ6gUqXcMwv1tZU2MduuNbqaqvs+eefs8OHDtrqq66yOVJTZW5cS2JgqGcLshE3KicjaiCrJVTyirNf0vBa2Z01Uok/lvoeFhjUmywvtTvuvEnS/FdlxH9BnR9srUbFNaRysXfCsJx6kZXlksTX2bpr16qx9UnKvW5vvvmGDQ4OClClPg7GGJlvmOYwKAIYPcHRxQCnB1e4U3RfUYRYil5YvRDEYF2ytFKgUK8qQ5XKaBXIGIRk1DsZgaqQVTdfKrFMuStlbk8VPSK/MAoup9ooVQVyBDT5TNqqJA1nNjfYLLndO7fam6+9ZG+98apt37LB+ns6HHBJpcHYU14gpsVSsfv27pMKesXefONN+/Hzz1t/X6+tlP1TWV5m+/bsFHjNrl93tYNpRJUmRS0Q8oV/xq5oKRmBRNI4NSKwMbyatZ07NtuunVs8/KqVS2zpkgUC1QEZ1+V21apVvkiQ8SATP5AgHe0dtm3LNlu37lr7rb/5G/Y//+O/b7//+3/bfvf3ft0ef/wTsjPfskMH9wuEMiWUNumWlmI2sDx6SJJqQNKfRqNGRJ5KctbZ3mr79+2V9KqUWXGNpZTJDkl9GpFXfAQq6iCe5Rgj1CPxnBlYSpz/QA4qfgK0Liyw9EeHAKORnsmiRQsksme4X4la44iAUlVdIfWxxBmSl2RCfTJQWl9fKzWQ1DMLrVm9RwBS31BvixcvEkDyupewuXPnys65x1vlU089Za+9Rg8tYUuWLPYeGM+UKY6cuvXME3KOjbF92zZ12Z+2F1/8uV2nyr39tptl/Dbbxz52nbrq3fbzF35mu2X8LpLhi8tIesxSz5ZzJAmShribGhsEpBV28vhx27Z1i9+rq5VaUq9uxoxGqcCrbf6Cecov41p577BQxvb2NqnGpN122y3WNKPBGhvrZNhXSa3W2F1332FzZrXItjzqduiK5ctkNzWImQXLDMs+peJ1npQkr6wot8XiT8uMGc63ocEBGfPv2jvqJNXKvLhq9Sr3pzcIXxjLYjYhEIAIoBg7L5Zk50YXdOQ9zAUmBCLZKv39slt2WUNDo82eNcsrnhcU+vv61CXfYytXrNS9BgfJ+xs2eE+HXt9udfPr6+tkZ8yzNvUE96lV3nzzzWJ6mafQ29srI3mHd+kZfGxpafau/QxJspaZTZaSgY8KZHznP/3RHyt8v9111z0qq0olJq9aJbto+VJVeEa9ykO2f/8+gavPFi5abIMDA74YkF7Z/v37JT2ytu666xRfVkmP6DpnBw8e9JH+ObL9li5daj093faNb3xdvcdD9uUvf1lSaZ3iptdtMtIZbhgWsNrVG94uW22Nj6BjdxEno/r96gG///4GW7BgoWykWtu+Y5sPnXCO5K2WmUC6SF9mNA4eOmQtzTN9uOPEiRN2cP8B6+vusUaBcfXq1dbQWO+NAJAOS9IjnXTpvHPnIwERcem1HTmkkdAS1z8rPhh5R+r5bGuiykfeS8trLyywStQdlX3pjE36OArSSylJgqTKpGrIKGnJH6lQIyN0KD2kBik1I/XB+BH3w7SNjlKd2EblUluMEflUie6xARhSDKAwvMGoPV/mzzGUIgbI23q6++yP//g/69lK++Kv/KqAOtfD0yulVWekOik/UmVAgErJiC8TeNOSElQ4dgotnjQBgedL+cGPPHAfCf3GG2/Y9558Uh2Ka+yJJ56Q5KhzXlBW4vOxJKWLI99V1WFEnnJVVFaoYQ2JV5RBYBOQ4RebDtPRIS0AksX+FI98Kqk0YcNp1Z8aVUKdA8YLwybFISygUlY9HtJBW7CkyFHkbjyN3Tk3YDlWLxRR2aEgApfOR8dRyK8y6fNryiL3ywQ01k5RSag5zpkUxhFHUs9ikyWTJWLQoDoAMDznxnypt7oRGc8y+nXMDMsmosLlTXpMMldXVdotN99ot91ys1QYrdikSlJySpfxPGw4PZDNqAerNLJq3UkZ5IQjHY6knVeHgjSDf+gkACnfv1USJSWPterZfuyGG9RQlB+VkzJQVtSgl1jhgh/Lv4JqTSpOMcWfx2wYVhmqqiqUt4zHXV6ecn/ShA/kleEcrvWgyqh8yLxA8sIbyoWpATZyagg0XJ4HiIErp3NTowsqseju+3gM0koVjQj31h21dCaUU7rPNWqMFgXAgvQJKZMHlyxCH6ogxJt3lYA6iP1iaRWMVVO8oaJo2cSDREENIglIizwBaFo1Qx+K1V1WlVUlKZNPCzQMZ8huIV6mRHgm5F/9RvUoiRmVjuRBskF9ff0eR7VsrYryCpdwnnekjMqE5EBCc43EIV4fCnDnctDz2tnZaTPmzLY+qU1UKM/BPwegKPCSRhc2K+F54od35Bd+IFmZBaARh95xSHusOkdPRonax9drHVR+QIl1gW2s6CgQ+fiNCucSSRWEfeXqUffk6eFc3USSjLEe6ZpRRgAIpF5SoEBFEJa4yCJFh6GuasVgmC0PMQF/VAJ2lgBIVDBGz/GSRUIVORy15BKGFhRvGRJMYdXdUH5D5VTJ9hvo6nLQk48YDBDxlcmmQyrEladkLSdpAQFG0o3Lhb1J3t1Oi+47D0SAxvNJnlVOKG5UHCmrX+t5gBVmNcKz3APgpYoDP4X2dPGPnyd9tbPgPymF2g9Bzg1YgRsiPRIxh7OPhkLMIZuIbPLJOSCIlw6HQAqjTCvXfkQ9cg+nYODL/Vx1UkHy5EhPi0JzjxAhfp3JH0bi8COsx6d4KDJ2VWCg8uGCDZsk5I98AhCXmgrjEsLBR3c9xEX6xBPSUyhUnM4BFaAlR+Q1zm9cHg+ta1f5znqVt8gBCJ4mLGl4nii7niEdJx1oQMG+ozGF+BVoNCzpezykoWvCcd/BiSOSD5kksfLCoDKcl8E43CeR3yuJlf5IJFYowNSeJVU4PNWUfTttRMdpKcoblernRZXn5QZxZ3r+9MR69on7nn5QIkXHWbgUFeWhOD9+GqcxltbkqcbPFT3v58XXUKh94vBaB+HwMYr1l8Z4Px/yInshpuZgzakvL0x0hIodJjhqrCiGwNdzdhCHqbiYxvIVO+VJAUZd7DfuyO+ZaOL98NSp/udOFxxY4H1qfxGzVeapuPFMm8wVU5wa7Ikl9fk5/zLGlByP6ycUIqLJ0xhzRad+WXzhHkUUx8txops6XWBgqVBi1pTcKcw5VwdNxrzYxVT8jNjjUx0xuKZKxXFOxU2k4nvF+ZskrBetOPxk4SbyInaYA1MjcnRFkLNKrX5SF98fdagSVCHHRNH5VN35URyHt7H43I/07nTEjfPnOOZOTxNDFrvYxsSdO10xwDojjWvE8QUulgTx8cLT+GpVHjwbRXnhdGLW4i4nNPHe2cjjU6q48yA66lHaISJHvHqAIyVY+qGljuWOMOeXYKzZztlFz0+ZojhO75BeOo6Gi/+Kz6f292HQOEnkUpa/MJQw+ucSOAoThT8/CjEoSlGIkVmPQKQFVhgxoO9Y6sc4tHqLGYXMS/Jl3A0P9tlILm2s7mQYgqkBDy8IcmT6IU5wIrmvj4tMThT6fOh8GtHZ0lbpojPo1MA+5jNlCs1zKhTyDWygM+cxUHE+STfqAHwgUsDiaHVZ6jHoVD9EE/PRS8QQVEnScozhjiQtWVZt5RX1VlpWWQwsZuizAla/z0ex9ieeL4vn3hhsc5B5EpMQaXk2JqeLCayz0dmA46P6F4kuJt8ScX0qkoCCkB+AVZBWY1VtfoSZinIrK6txZ4kygJVVWEZimeLIWW44bQUmOgUsJjt98DQCFaO28dTF6WnyUsS+U2aSIuDR8+TxGehsMU9ero+aSNVTnmLBY1BN7fFiaRdOxkAFKiTPSgOoeDUtmaySAKtUqCTAYn0wPQDAheQKs/IFSbAArACoeOufM037OKZHM3Iq+a0pMiiOd6qPn5UU8Rml7XmpwqnTaKrnwbfz4RljaYFCRNQxwAoAC8BKJphcr5CkKle4lG4ASP/CKv+ASw6I+lwSthR+4V6QWMSdkN9psoq6uIgq47wonrw9HZ1VUl+mVAysAIAicnNeVS4wlQIopr0CnwQsmmL0UOwcZAIX56MRyY+pcCI4HbCm6TIj1TOQGCXwgEfsCQ4AkhyAKhA+YCMCVkw61WX4E5AUJgQLxyAEiSj2nYQukso4bzqbpL1Uy3XeFPMlKj/AGuVFdM/BFAEsognACoQHIBqjsfOzsP+sNNXnT8nkFUYXj2/FKQdkoABjcttbPv4XvbMIlYz4yjkFmJDzEMVkND7ic6WpMgiaeqqXNv0y8SzUfey4JndxDqNzgYnxr0lBdXr6sLP6wejipPrLQRez7KQdO36DJhvLUew/5jChCvo/jSosPhaTDz9MeufsNAG/50xTS/XSp4vNt/j5WFpNlp/gx290NhmwYpp4IzwydWBBk2Xqg9LUU7206WLzLLa3P1g+JgHW5A8WZ+1KrdormajzuN5ByBhKzoSGCcCaGDS+nhjx5BA8K50pJx+EppjsJU8XjW8kHLs4kvH1f7qsFQFrYm9vskcU4bjNI6ZAp8vJB6EpM+gSp4vJs3iy0A9FkcWn8p/Y+YMmHccKFHtzLA4yDawLTheNZ9HDE9OX99myVDLCFsJ+5r9jNBont8dcGLeYpiuDqGsJkiIUTSadxmhM640OkJ5CkwILb25Mg+vKoFEQBNLl5GAppoCVcwQWsDpPVThNlzRNDpaJBLCwsSaGHieQuB2AFaTVeNE4TZcxjcNBoFOrPvYZ3/UTsFgLM0kMo0Tw2E0D64oih0Vc95NTuEPAeFw+UEnBgYV3DK74VvFxNLgci7nC1TRd5uRDDcy04CajGDOAKn73MvIp+ArSsSDjgQQVXxNq2sa6coh6nwisYizEDlDFwApIErDYH6sYPDr6MuTIL4QT4c/1qMeFp7MlTZanSh9l3B81nSnv55Vv6psIokjGxUWiOAkaX4cVvzGOk1dhJCtggUhdAij2WJLzLQd1XapneRwbn72XPI7xKUzTZUpeyzFodeFQGvXE8TJFUgdcSl6AixedZViF9wqRUOENnVx22DcOc2DJjWpNgMUjCa4jv2m6rCmotdjpV9UezqAALD7DUpIoM76IxvuEVpISSgS4kZFhBReIeI9QgGIzV778wAaubKwVolcQ9u4k5tJCOE7TFUDUPKMARcPio+Dil3cKkwJWuSVSlf4GtJWW+zMCVlqIyek/LWmVtnyW7a+zAlp4C9pxyY8PdwlUpRcPVGE87fQ01rM9d/oo4/6o6aPKe7zpnMcQASrIlODHW9B828hfWBWoEuXVZrywKpUYgFWQ+hOgsplBHdOSTrxuL2ApWkCVwD5TVL6/ZUAZsV9wOu18OSQmkLOpksd8hvgv5iv2Z6OPii+uq9ggRufE4QrLk/IrB1Y+r3MBC4mVBFhlVbrmm0IFJNaw5Yf7LTs8oNjYHCSrG0EVBlAF3BLnGIovBp2BgR9Knj7q+D8q+mjyHeo7HBlkcqmF85tRDxCpZbKzeMW+vMZKAJfv3eDAylg+3WcZuUQpgAoSK3wQM1aFbmbpQpa/rj1yJzxPpcl9eSp+8gzwPOXhEDK0zKKbEyLwtul+k6ceSAEmuX02dXI+wyxnzdLZKOif8VTkFfIelWuSbI7LOpV3Jopux9HH9rRUm99ik+BwE6gFcOVH1CvEziqrkfCqkTr0D2ESMHI69z3BUXn8IZ3k8jLS8pbSebD40at8IhegBaewvuU1W1fL8C+R0S+ZOawepoJaIWGWVQyZPB+wVIdUCbP9zWCa/dH5IDf7vLMBP+I1SER6G3zwEgORbXI48o1jvliVUCH8qGf5olg+R/o6et4JG8riG+rrzLep9lfouVJRFYaPGYTvFyqrbGyhchEfji9jEW8uy1ck+OI9W/XoecZa5PSYl59zGMu3C+Nr735H/jiuyXehQOvWsyoSaoOWnlO+E/SkVLbYEa7EKGPw5/NvOT55Rxn0R60GDgXHFt/sdc8X1Nhb3iWJ0sFlMpSPUPBAv/r3+tV5KXkjOo9SYSI3VqfcolzwNvA32FQMThFnGCWgrvOq3YIcHbtIVyKxMiP0CNmKOyNXYmk5PkQdDTWADApNhvERgt0/XOkYcsc5G4bQOoaGhwVadUFVYQN8H48vPyTF8DzfF6wQc2FW1qoqK1R4hjfyVl4BkML3kUdUczCLFPjsGgDgWzu5LJ9VkyRVIqRTpjQQp3nffF+h5ReDyBuHGML+53yYgHOwFb7eoIA8ETEN4mVLNtzn2z18FIDv+MA80vMvZigtwrLnO5+9RToSjg8PcE6a3OOZhMrgHwoQ4cc3c6hE4vLFJPpn33aIMpMD/+ZP9PEAGgh3faN/+KvKKtDB0rP40wz4C2UKjm8NwQA+QEXj9y9uyLG5C50ywiaVLxLjnI8O6ESxUXOKVf9c+eZtOiIlw1lIE/D524I6jvpxpmiysrNKJCzK2BurvE7Psj/WOQMrgChEHo7xOZVIC8ogYthEQ5mHSXzmhA8J5SSBylNsd8MXUrP+WTe+HcPzMJavM1RUVPhn33JiEF8h5csMjHrA5HiDfEDHznKc4x9/AYL0ARR1xjktHRCHT5Mo/6qAAMoALhjslSMH2/zTJzQAXfPVMcL4J1iUXzb5D4xWGUlAp6Tv5Odx3JGXriH/uobSzUo6V9fIBlFesum0A9IbolzGP8sSABmkLmWI71MYgVLpU35UEt8C8sahJDj6h5kUB40wIRBjcPNxJ+LjCxul/l1F1aLS5lkaEGkEiS4+eJ6j2vRoQ95d8+jcb58jsEDNFCgkPJH4PCyVyfeGSTE9lDE+7Y96KVN3tL6+QZxWK5bKpJBDw0OSBFI/AhifGqFWKFRJUoXXH580oQIIk5GEQ2pUVld5RacqlXlaOAxSBST53IeYjnTxRbEwTf4cHTZUkuKCVVmBDediXhzyBqE48eP7PRkko+IpF8gJz5fFSCdIJCpK8SVQGyGPnmc4HbVyKi0mysFHpiqr+XrZsPX2dAWQKEw6k5ZEV4dJEom/tO4DYPKS5LuCii8tvmRJ1yuU8sRq1jOueNSQ1RDLK6ospfzmBWLUdipFT42vgUmqCmDUmKtD4CFejNagI4SryMcP7ll0PHeaosQKjIsw7o4sOPqjqxFlngLyLea0VGNPb59aUb/NmNEk4CX9i598/YsPOGIbuARRwWmxfMoNkFLrfPIf6UW8AKC9o8O2b9tqixcvttlzZntcOSSkMoAkHGbjOKSkQOctXn+Ak1w5MOIsKz3yzCnk6lbSCVD5F1BFh48csb179tktt94sSZpyKRsqJxDP+zd4JOmgrNQa+UcN+eeI5UfZkLpIEz4TR75Onjxphw4esnnz51lzc7PHw3PkmzwTBuLTcvgHu5LyKKQAielAQWKphnREYqHOBwbTduTYcTWGYcU90+bNmynNINgSv8qIlkio7PAMDjjfA0P8N/T6AwXDPXTgqItzkViJr/zLf/4VpnPYGpJPkClJOUWmSMPD/FIxUVSj/mORc4+/cESKoBoEGrUYDD4+3//tbz9pf/XVr1ptXa0tWrzE7SOYEjPEDWhdB+bCSFWkgNnfP2CbNm2x5paZqsSk7dix07729W9KAlTbkqVLVVlVesYcvG7LyZEuH+UG1HQMuI+BTQtHLfs9+ZNfSkH6tPS01FVbe4eAXaEKGrInn/y+fy1+4aJFNm/uPI87fJ2MzcaUls4BKqAkLuLlA1CoGP9CveLkmUFVdt/AoOItt141MD4k/t0nnxQv6v2DmcTDM+HLaHz1FaApZ+IH31PkO4+UjTCkgyMPbifpHMlbVVXjX8J/8vs/sL/6q6/Zz3/xor33/gYrVyOdv2Cu8s2nh+FBaGhuwOt8POnavSJ/P4zhIP4LVxHphLqmk8LmawCMaR1ydp5EEnKKHA1AJZYqYh88Y7NAHQ8eOOxfUt+8Zbu99DKf++8QY/gCl9DODpXKhhqnMqgWqN5QRr0xrjlu3bZTgPy6P0NPh8wfPnzM+vqGlFb4qjzPlJVVCYgqYAlgTqrF5lWhGQGXuDCuARi2HR8XD/cG0xjmyrsqrq8vrQp/1r73vWesq7vPmmfMsXvve9g+9/lftbVrrxd4YClfLJNMH8oKhFJn6oyY0irIL6+0h4dyNjSgNNOSNLrGpXX+yitv2De++V3bvXu/GlS13XrrnfbZz33RrrnmequuVit3XoyoEaWtX+VxCcBmZnJ59ShRg8PDWevrH3SQ8hUy36IRU0C58oajRrhl63Z7+ZXXbc3V19rv/t7/YLW1DbZp8xbr7et3SQQ4Y9DqAMZC9X0ENAVggXqydSrRouIWzNc9AVa/mLFj526b0dRsjz/+WevpGbTt23d7xaif4pXc1tbtR5hLhR871mZ9vUMKi7Tabj974SXbv/+I1GCPWnC1ACiRrwrct++wbdiw1Q4dPi7mIq0qJLkKAt4J27Jlp9wuO3LkpOJWrgWAnt5BO3a01Q4ePGp7dh+wfXsPWWdHrwOhp7vfXnvtLaW3zdrbezytlpY5dtNNt6n3WufABST7leZm5WnL5p12VHEDqlRS9wS2nTv32YaNW+2A8ppReQDdsaMn7c0337WNyufJk50ex7x5i23t1escVOzXiR9l5vldu/Zbq8LR6GRWWmdnrx05etwOHVGe9+63vfv228m2dlevAASpiKTEDgMlSPoZzS3K+2xJ82o1HNQkHyVHqgTbKu60gKwz4eo01fyBaGqq0E+L70ehlPFYrTBWhX2wf/9Be+XlV23O3Pl25513C2R7vMWtWLFKLarennvuefuh3JIly2zmzNn2/nub7M/+6/9n8+ctdCn3rW99V0xv9e8/L1++yiol8r+N3/ETtk3S7BVJwG1bd9iKlVcJADWSitv0zHfsxz9+QRW6XmF2yD6qlm3XbC/94iX7+te+Ye+88669+NIr9sLPXnSG16iCn376GXvpxVcElmN28kS7Xa1Wv3nzVvuawl+3TpKlqtpefulV+5P//F/s7bfW2xuvvyVbb6fNnTNf5U7as88+LxX018r/Rr/f1dljDY0z7LVX37CnnnpOjeCgdXf12vz5C+3woWPK30+tqbHZ8/wL5esbX/+WJNtrSuM127ljlxpii80UOHaqUf6rP/gD27t3r8L9wn72sxfUcA7Z2mvW+jezs7IJAUxSqi4rvh48dNheFr+379gt1dhnDzxwn61atVLSXyhVxZXJ9sMWxeTwOozqMtSgnP9H5/yOogvf8BeuItLJR6QKx2BN6/GuMgCLgLdPDOFj2rNmzbRFCxfbnFnzbNfOvZIkx9Wqc9bR3mVHj56QGi21IUkrVOhOMYXj6tVr7eabb5NaarG777pPxmiLJMOwj2nV1NTZ4489Yffe+4Dt2bPf3l3/np040WqvShXsl+p9+OFHJCE/IxU3aD/96QueDl9URY3OmT3XvvTFX/MPmL/22hvW3d1rN954i60UOJcvW+kfH2+RTYe0PSZpgSF89MgJ+8u//GsxOmm/+Zu/ZV/81S+rN5a3VwUcJMlWgfvqtev83uIly+2NN96W5Drkftdd9zG7es01ducdd9tslX9ocNgOHTqqxtLpgHtKKrhCkvg3f+O37FeVr0OSqN/8xndcCg6ns7bh/Y1uI335y79hd999t61Xw9i0cZPy1ycJpYYsQ5xedV1trX+kvUN24jtvv6PzVVK36+z4iZPewDq7uhxgWdkZ3qFRBQWlGB/losP5SCvoQwAWFHIRi1h6bxT0ZOtJ27hxg3pXh2R0b1cr/YnEfJvAtt92qCKymZx6KRUyhMscMJXqMg8PZdQKGeQ0W6WK/tgNNyqTCXvi8Sck1ZZ4Ogxb3HbbbXJ32B133OE9xAPqZR09ekzSaL0qI+NDBACGT9V2dfUoL616skRqaL7doDhvuvlmu+eee6SGZNNIrVx33fWSkvO9Y3H/Aw9ak1R3bOAz+r1r915rbW23L/3ar9vd996nZ++zv/v3ft/uufd+AVRgvPteW7RoibWqUtvbO21IeUANXXXVGkmM1S6Nr7vuBpsryY1Up5NTUV7l0g1V9elPP2533nW3fepTj6mx3C/1fkTA61DDGLD6uga777777fZbb7WPP/xxH0jtVO+4gk/9MhgddSb27d0nifeyGscKl7LHxI83Xn/Tnnn2OXvt9de9gST9W9sF1Rjjd4wL6gwJ4C4IA9z50nkCK4I35CoynCOtGEo4fPig7du/Rz4FtdAD9tJLv5Dd1O1fuwBo7W1tsiMwdocUZsRbHp/apVedHuLj2pXuV1tb4+H4sEF5BQOYOWuor7W6uiqrrCxXT0w9JJ7PZ8XotBg4IBtql6TBbu8VLV2yyD88nssB3pSkRrMAl5R6q1Bcefdn/Vl1NekJEIxUsx25zgcH+5R+lZeho7PD6hvq9Cyf7E3YTEnh+vo6G1R6Gza8by/8/Gd+HBjsFxiH1bjS3sj4Kj75hCfhA+NqNUo3mxWoFY7lSXxIPD04KICUKs5aG5A0Yjv0OpWdxjpLEpTR9QalR8VTTvzLmZGQMdbX2yNJ9o719vTYb//Wb9nv/s7vKO6s/T9//Mf2+htvKq+zbdbs2aojaRPxGEC5ZoHZxfX4IdGHJLEC8QlcxqVgXl9/r8CzzSvrd3/3b9k/+af/m/3hH/4bPz7++GNqTUds964dAkeNM/DQwQPW1npcanKb9ff1OrPZb75MoOEL8tu3b1Ul94qhAwIf41R054NNODysXo9lHQBLly6yFcuW2CcfUY/uM49LOq2T30JrbKhRXFTssLtkYkSVPyhQKuMjfL+ZD5vzAfIOqb2DilPpKEylgJwZHrR58+dI2s2W6ntFamWrGsxe2VVP25tvvW7vvbdeXfv1tm7dtfaFL3zO1qxZrdbFgCqTnIyd5VWmHjty+IAA0K18ZxU3Nim25lLxqELqbr0k4nGp9Z3qQLwv202grauWRFUeJY361bMrS6bU6xz0RsZYH1/Q5zvWSsByGc4pS5g1AHAL5s9X3rMuOVtmzhKPStQTTitvgInhEYZOYmB9uHSewAoZDBmTaFXPhE/0M7zS3d1lrW0nJfrn2o03fUyVu1gVM0diepHUx51SNXVSXYdk72CkNtmLL/7Mvv4NGb9icH19tZhd7pJk4cJ5UiMz7Pnnn7Hjxw/LQDSrqimXBIApDCWkdb9JLb7M5sxpsdtvv9nSmQH70U+es5/87HmpRmyoDoF+RHZZhVcWgAQ0NYqnrq5ScUl6Kb2rVi0ViIckWX8mO+WEJFNCdl2D6iqrvM+yBx+8z95Z/4Z99at/bt//wXc9z8MC59y5s2zBwrmy7XZLav1EDWqLA6e+odqqBJoFC+a6FHz77Tek3o4LzEilGquRlFqzZqUtXrTA3nzjNfvOt79hf/7nf2atJ47ZQw/dL+O8Vo2lWvbpLOWl3A11PnA+d84cB1tFRfArL08p/1WyYRe53zNPP61Ox9ds7549dsstt0hCz7b1699Vb/iQD/4SB7bwQH+/8uUz/JNQXLdTo/PoFY71EKDgxcBdwCqTudgoK1etchvIR3gjwx7Vxcg7EmD5ssUS0zMkPaQOdX/t2jVyV9u6a6+R+qpRq0ra7NkzLZNL24pVy3TeokorsWXLl0i0t8gYHXaVuUTqbonA2yyQNjbU28BAn5dh9epVsl1udwkwIkC1tMxQBSxw1YhUrJBau2rVCgGu1hobGyRxg+paJT8A0DyjyfNUrQqmYVTXVEki9Huat952i4B8q82VNGNCHSnd1Fhvq9esEmCu8jgadY06Q+3WKM0lixcqTIMAXSu+LPQ4OQII4k1Jxd599532wP33+7NMMTGweuNNN3u5+ch5eVnCn5kzZ5bzGpXIwGx9XaOemaF6KLUmOjx332OPP/GYLVw0L6julmYHIGofkwOpF+oS4iR2UX1z0+cLoVDfcZ2HX5FOJusVnuOUDhExXhJEZ4i8SIwSXIV0kQWQFIKRZO8tcl9+bizKheUeYXIXsGEbwBwmo5l+YAI1KdFPi8ImIPISqQ6fP9Q1cdBlpvX5shKmKJSuT4cosUHZaICZSW3SYj0/Up/ekE8X6Zz8K2tOTFfEUyrEQ6NgcpgRfiq8XBUfGkupVzbp1wvA2DEQc3/kFX/yRIMIXXrxQPGxrIX8xA5yXokIx3QTk/CUm7SIt0ogYB4QVcZ5emhQ6Su8ygIosONQZ1R2Wr3H6uo674wMq7ddkkiJf6z+wGwgrTC8gBBxM0NHGrJrQidOIhdZ8z6lUxJJNMAjHn0kqxucioD1QSiEDNlgnjHMmMvHb4QCjFE4jxeVTSSvlOh8IlFJwRFOORY3Y6AAOog5PEDOHJxPWuu+DzAK/DyHg0IqseNAvvNqkVSgKlOtPwYIYKABxCCZjMbMmCg+rxg9K6ObfMZAOz3xcBx/HNZrJyL8YhdiD8c41FjIQJPzdyL5U7HEOkdgRWj56IgMBNkVF06Z8MzFrpgiJrh3dD7Bne4PNAEiHFLRu9Ty5uhp6j7SDkSrt++GNfVJhwM/yT85mQQ4gSg0guiciRMF85UbAmQshbnmHCLLp3PkgzxB5CPOH4BkhQahQukmd4Hi2CbzH09xbMXH8e6D0lgq50ofObCKyVkzmte4eO4bOSgw41wpVJZUrKQSqozR/cBCOfSHxAZql7EbgMLSHTLDdVYSW4pM1wKhA4oj92MXwAmYaLdM4AIob8NSXaTH/dO7oF5BZzAF5KdzpmJ8WsZBN/GZiW4yOp3/2Z/8qOmCAks1ph+SLK6IyYmgp7joXiB5uAvxUTdIEOyneHUER18SXAAASbfhAhDCCs/Ydht1oN6RHwA2CjRdY0MBppwkDSPXbochuQiufBTLg4kOEMWDrQApAFFO/vkccYc4TufGxxc966443C8XkbsLSGIASjl2p2EIfB7PzIh5qojwTPxcfF4qOynlA4i+jl0oZN16WGuu2yMJGxxIuyHMuigkDX8YzFDCbSbOQsqj4JJadKdrVsAiYVhSg1Ts6etzgKHSAMvE/BY7t+uiZTTKmatAZgYGB4Z8GAEbb6wsH8RNBFXsfnnoggNr3J8AMGZvxTT5NVWC2BqrMHqpuDE/lkXR9cWIotKZb0RSdXR22Tvr37Ndu/fbcAYwoJIwvJFIVCqL8uKVmbAkjjv4cQ2gspIuvPRx7NgJe/75n9iOnbscvL4ua/SZU13oJY+t/OwfGLT3N2y01994y9raOz3fE5851Y09f6qbSFEDmeTOhaILCiyHSAQmd8FH5367iIL/qIsk3KnMjh1AAVQqkIDE3OD2HbvsxMlWPZ6wTl2/9NKr9t67m2xwKKt6ZhFgGG/hk7PxWy3uPD6O8XlwxDMoKcOxu7vPfvqzF2zb9p1Sv0gs8gwrJ3fxW03EgxpmXRUrN5hq6ezsdglbnNapbnxeikF1KsWAKnYXnij5haPRMurE0RS3t4hNkS3iKkMVwMpJ1m1RmRJAXoGsDmUBIK9HubEuFYh/WI6U9PN9Bw7as8/90FebArT0cFYg67DuniEbHpbaKiClWOnJ6L4qu7TcXb7AK1NSjaWVyk+Z0qbnxgpV8sIzoWLnzJtvD3/8EV9ag7RCkpEXVo0qQ55ff4NYrkRqDuAMZ3gZgigYMa+yW2+73e6++14fyPTyKQ7Gq5C0NBD8GIfyToie516qrFL5k8TVOXkZtdXOCLKLQ1MaeZ86xVKK0wCoMXBJ4gSOqhKYpqi048dP2vp33rPNm7fZ0WPHrK6u3tdFodq2b99hLMcFOKiWAwcOCTTDvhrg2Wd/aK+++qqPVc2eM1f+Gdu+bZfKp9KpAnft2mMDsm/q65u8klmVyeqF997b4MtLurp6rbGp2e9RkUimkyfbXAJ2Ku2amlpVttmM5mbvMOyUStyzd5+dOHHS9uzZaz09vQJMs9Ir+L31UsN7du/xMa+6ugap1XJfSl1ZWe2L8oirvaNT5dxiGzdu8lUa3MNmZKXobj0bx711a+BFY1OTVVZI2ka8i2EVH8eDasz3nGn00VB3cf0Vebs0njjyfhGAxa/iKAJWTOGtmxGrqa7z9dv/7t//B9uyZZu3dhbDsQxm9eqr3cb5kz/5L37OPBgV8c1vftvvVwl4zz33nIDCmi6WycxTBVVIFb7i67wYkd+iytmwYZMqf4YDj7Xh3/zmt3xR3RHF9dprr/va9GXLV/ok7p/85//Xl528IdXFkpyq6mr7ltKrrKyy2to6+8EPnrL333tfdty79vLLr1iXwLd0yTIH/3e/+6QdOXLU9u8/4KCpFigbGxvthRd+7qCbv2CBq8NvfOOb/vwBhdu6bbvyv8eWL19hdfX19tdf+5o9/cwzyttRz98rr7ziqz5WrFhhZWo8oXEGCseJdRTfnQKNPhrDKngUeU8KrAurCkeBJEb42E2xYykuoMa4HZAEOmyMZ95zzwP20EOP2LJlV9mPfvQza23tVEX0SOrslbRA/Zh1dHRLup2Q5BnyWfybb77FX4C4/vrrbe3atVamnhcqa65U2AMPPGSf/OSjkmz9bnzvlhR4+ulnXb1+8pOf9oV6q1atsed/9FOXlAzab9q81aXcww9/wm6//Q5XUa1t7Q7+xqYZ9sgjj9qjn3rMFixY5JKwVlKJHiT3Z0jV3XPPvXbzrbfZkCQn6WGws9yYdVu9vQMOMsB000032+d/5YuezvsC+0svvyqJmfOwGzdtsdtuv9Mee/wJXwLzws9/Yb3qmYYB4GIKvHQej55feLqgwALlwRoYc6PAQkKWyrIRCHjlq6Vlli/IA0TPPfsj27/vkNRBu1Qf84mVbnsBLN6fQ7UwbkU3vlkqaNny5ZJks2zFyuUCWovCMbfGhPgyu/6GaxXvdZJUswTEAUmSfZIoh+2669YJiNf5Mt7PfvazrsYOHTzsagqpBEg/+eijds2169wOxJ5CYtXVN9jSZcu9NEePHffFep/R8wCcFapIRECz/p31tnvXboGpw8fDiJfhD8CBLYiEe+CBB+22W2/3cvP8XqlXOiKoxUWLl9odd9xpK1euUl4+ZocPH7X+PtZvhZH/QPAyUJAoY9cXmi6axMKNgQuSWSxjtLenz1XYCdlXP5aEYunu0qUrbOHCJRL7Vd4jY8luSiLXhwsYUpDRzutajA3xtjFqghdOPVYf2Cy1yqoKa2qqF/iw4ZigLgicg7LrWNabVuWVW01tje4nfNpmQFKTV+mZA3RJKKBjc1VUVbk0Ci+2Mi1UKvurVSrwZcU/w6XhnDnzXOW+s369vfXW2x5m9uw5bk/5a/yKj/Es3vQGGF3dPQJ+mTcO7MyWlharE5i7e3rcPOAtGwZ3kbqVUvUzlRemrsgbnYYYRjGNv4r5e2HpAgMLGgPWaKEju42BykpVXH9/vxuqHTJoWX584023KgxvS7MSIuXqZ0bzTNlG79uuPXtsv3qBrKtH2rEkukrg4sjLrenhtGXzWR2HrH+wl06Zr+dKlfO2canNWzDHl9+88+7btn3nNuvo6rCXX3nZEqlS2T/zrKyizFcWVFaGl1j7evu98qloljRjO33nO9+VUb3drrnmWu9gdHV1WXdXt3coeO7GG2+SFF2hDknFKDgocbcAxSvxV6+9xg4cOmwbNm1yO+ol2WnbJcV4pr6+0SUm0ph0Wf3QJykH2GkAYaHeeCj9MtCHBKxi5VbsJsBo1GAXiRdjfoHoNfEUlbF06RIxr9++/70n7T/90f8tw/d9+dP9zvgCuOuvv9a+//3v2r/7w39j333yW3p2WIwPy35bWppUwTX25JPftp/+9Ee+3Jg5P5YjM0UzPDwoiTPgcbF+6lOffsRaTx63P/y3/9r+8f/0D+0v/+K/28MP3W+33oIqblVljhhLiFnmwypNlg+ztId421pP2I+f/6Ft3bLJ/uLP/7v9w3/w9+2P/q//aD3dXTZX6nb/vr32l3/5F/bUUz+wQ4cO+gsQrJBFMrImjDVnn3j4YfXwyu2P/9Mf2T/7Z//U/uy//qkvjLz3nrskyZLqZXb5cmXC9PfTQanwdVtI47GFesXgisEWHD3H8X8R74vch03nuGyGTDGuNOKth+kI3h7m7WBm1BDNgAN/pkt4JT1Vpl4LBkUJ65JAE88yvRE2+KDFhVUJYSsj1AFaDHW4Zct227xpq78xvHTpMgGtTz2lpd6bO3H8uFTNOz7EgD3FQrnZs2fLaF8oVTNohw5jkx23RTLi69WzOipJUK3enL95LIDwQgfZIl5eg9+3b7/tkjHPK/qzZs60W269xfMGmDZu2iwwN9maNVdL3Q5ZT2+vHVeXv6GhXlKyTL2/7a5+4Ql2Iqps8WIM+X4fQkAy8dZPQ4Okj3qFTU1NLpWROrxhjUTcv1/p79optdfjCw6XLVsm9b/AVeSGDRuV9xr1cOc6j3u6uwX4Dps/f56XzYEuXsJT7juclA/+8r7FUN6B7CDjvniLqUDZIPy4V9TGnRRMROeAeiO2Un9WF/g4AYsPYT0W07Es6w2L4hgTYqqDXlK/mMh6J0AFxRto8JejayVKqSC+44uL77ANEbszA0bCh3VNpi79sAMMVQPAeCunT5XJixQwj1Jhm/iGGgrvO9QojRjQjINVS6X6u3S6D3BZMoPqoPLJA3kHYGFvCEAhm0ugIf7qqkpfbMdLHuWSfANSa0kYJ1XGtkPlkqjDCgsIWZGJ2vX8K08ciYMGxf4N7AWRzTB8E/aSYE6TclM2X0ioDgB5p4PB6gsqkkV8vLBBw/P9IGSXkXcaMA2UPABk0gB4dAIAFrwbrxrxUA2U8HKr6kPlRpWSL28EigtQBTCeDlh46kQXHx2wSNlXFIZM8ToR7/cxEsyAXzwJzMpGSol9Ep7xR9w4x3jlAjCVlSOdAE9YkMdMPzu8eDgFo0XDrHq1dE5Ye46hDfBo5TFQSIDXoKhUDGUADjEwOraaE0CqpTpYBXI1BlhFJXHOsyz7Zd0+S4D7pLJo0SxBBjj0AgEiqZEulcF6cySlV4zipgxh3T9SXVxTeJfGAhV8wRGOtDj3pTfKL8/zEgqgYPEfL0vAN8rhkkaJsjiRshIfcfMMBSG+EGeQ/r4+TPfJh3NGwfWkh8exmhbHMzEYIaroogIrkeSV7bS3TnKtokjkD6pHRYTs9ZT1ivSE9YiK44UIG6yNWAUSjjdvxLxYfOu2MwXxXJYq994dhalpbLKCwNHbI5uEV7xk69CSASVpwExUE8BglB0gAEikARII1UfFYdew7ooWDuN9cZ3CATLCMlzhFaRUAUXYASdIZvIfwK+KjqQQPb5yPUPpkATcp8J5lni4R0eEa1Q1gCCNMYkWrgEeI/fwgricWKrjPAs88Y0/VJlIKAeGJA75IgBlDGChIcLHAG78SMM1i/yIOV49y1Ve4I2fJ5247KcCCw+c7ioP5wIseZ8bxZlhYI6eEcwLyZf4uE+n1IZvtaioGWfp7ekXcyW2U5JE6tExRMASlmwGI5pKLBdYKlXxgi9dNsUD0wFPV2ubx88ONRj0AML3HxDjEOuohqpo6gOpMDQEWKkMjGxJQ/aO6BtQuHL1rOrFG0kElyhKW+oDptdKGpJ3KnhIkpCRf/JSKVuI6RTPj1RgdW2NA4gKZO05yER14YcKpnLhBxISVQ+AYAxvxVRJLdMgAAr8Q3VThs7OTm+kMSGMkIZM1RAn8ZAewAMw3AMsMRB4IQLn0lhEnL4/GGl7rXAgJPtD5Hxmgikq3uamjhwVLjg4Eq7YnR9N2cZCMgEA558y1SkDdauMbUafkRRtAkV3b7cKmvMpDIzZWqnNkyda7ciRQz4OROXMnImhu9AlEpWyefMmfwOYwsGoObN5n0/dfqRNCmOarY+Glb/w4kRY0Jfw+Tn2XTikbjtSCbCxEcnChQulXnK2e99O6+hqcwlF3DxPmIULFlpfT5/1yoYDxAAAlbho0QJ/Q4c8uORQ8alggLFJeZw/f75PJ8ULAOkleoUTUMQ15NJRcXAPicHz3OJVrPa2dlu5cqXvkQVnGVMDJDhedkDqASY2sMM2g++xxIvVmYoS5TGkwzmA1MHNA8ZXmLxua2uzY8eOOi9b1PkhLtSuHlI8zm2i8utAiutCSqyYaEHMxFO5VBYVSouFSV2d3X7Nyk3WK/FqOnsmsFHG4UNHxdAuFTqMnDPRjJQbGkzbq6++5r0zmEKrhphPY+1ShSSW2yxy3HPDXwFhNL2uPXv2+QYkAA3pxP4IzNUxuTwgCYnxnJIUQCrRq0upUZQLWPizZ+pJMR4pDAiZ8N21a3eQolIhQUoiTVgRkVCPtNU3+GACHFMAyYg0pgEiPHAuFVxqol6xO1XeLPxi01qxXRVE+khygMZGuuxcw30keJkcYZAwviui/LNKB8fzpVL/bN8UltSwUFGqTv55PcPyH6T34SPHfUMV+Iw9zBQSEpy84AAj0t2BMwqVoqODKL4+Nzq3SWj98/IB+p4Khtn0Mhg5ZqCQfRHoljMpzDDEzbfe6tMaqAOAgXF+8MAhl1JMkaxYvlx+ed/pDltp965ddtVVV9k1a6/1kWq691TsFnXZUXvNzU0uNfxFBLeVEOclnh4777GTyy0336rjAs8L4Dl+7LjVVNfailXLbfbcmd7JQMKsW7dOknKJQFhrHWI4qufmm262JYsXKy+DAtcJm79gvqeP1AAEXilS0ZSBVQrwpb+fzXDDqDmSm5USqJwB+TM5y5QT/kjUnm5emzcHDq9q1dU3+rOUg7lLVk74XlZiLBufwHCkBICDnzRYzAviANTEz54XABsJDAiRbgCZuFgVgdnBYDJSvlVahF4odQYfaZzeGQi166mJoaPyyCWirgJxN/yFq4h08iGsbiACuur0oJQpoZ0NLQb6B33Zx9Kly8WolIvdLtkPZBqjmuECBgIxlp05MqaxTTAoGfPhRc59+/Y6Q9mYo0ZhqcycAMyzhw8fcbG9ePGCkA2VldYGsHn/jmUkTAUx4cyotrc0MYX8MTdHWi2zmvXQiHV0dKgCsjazZaarbCqmo539prKeRyI/fvy4T+nwinpdfZ0qUrJAEoFxNuYq90kydgk8h6V62ZKIiecaSUne7du6ZYfvPHNSUhqpUS1QA6rNW7b6rjTseINfe3uXQH/C84tZsWHjJp9BYMYBCT5z5iwHEJJroJ9l1XlfQoRUbmulTObxAHI2WuFFVZY6I+FZgYGWYLVGPM1FGY6JT8xQMDfKuB6NlR1q4vc4AZKrUh19W0mBO7bfvO6jv3AVkU4+lNUNVKZHqhM3ppUJpE14cyXhPaLly5b5/poM+P385y/Y66+/5gN6DOYx6IfNwn5Pr7z6ihi6wVtrH697i1tICKZ1kCpB1fL6e60DCECTXtxFJz1sHADrRq+kYmBEsEEYY8KWoLWSJktMyCdjZ/QgKySlGC5AnR44sN/eeutN+8WLv/C8LpC0ampqdOOYIYmB/gGF5e3pUlVsu9uL7Pe1VtIVkAGSQalfFiJ+7GM329y5C9TAOn3lBRPGqLo1q9nTqskByLoxJpgBOUBF0rHl0P0PPKQKrZDEbPVGxTZGLCM6eaJN142++w4Sb49UfI8aE6DmyDOoaTpLSLMlS5bbsqUrZCsu9rJgo8IzbN1bpUng17Hjx8T3gaiRslUmL+JK5auzAo+DPTo1OmdgASoyQlc/SMlgUPq+lsoVA4LYQLwmf8+999i669apsmU879klZvb4a+G33HKz3X7Hbb5nFhXa2npSvbuqEI+L9ACiGvXYOHZ3d7uEpLBIIQYvYQAgQyUCRrr9rFZgQ5Jsji2EMrKl1HnQOVMgjOtwT/hy0DEgSe9uRP4YRTMaG2zFiuW2evVVAsYNnv942gZAMvKNBEUCs8CPvbqw5ebOnWdNjU0CCXlM+XDJ4UNH3Obr6x1w/gAmDG62UkJNNSp8BYOtqjhUHBKSkXn2aKCjc8vNt/hGdGznRAdJBfX5QuJgeRASEEnrQz6qEeoDPvEyLUe33/Qc2gNtQPnpKLFBS11dnepgjs2QAc/+84yT0UDDmFkYV6Ne4S/peRVPgc4dWEqYDAAsCkHGfIxGflRsOj1k27ZvlRjeoZaV8g09KqtYApwRY09IQr1vx08c80IuW7bUqnRkjAuVg711/MRxV6NIiRNSgSyOA0yrV6/xFsVOxoMDgw5CH4OSndAc9XIOHz7k9hE9Ksahjh074udNTQ2uwgEVvUrm2ZheopH4uaQSDF+sHuSSRYts7pzZVi3p19HRprQGPI5sjkpj360B+UlSDNKLHpTNNujTMIyRtbW3+V5gtXU1DlC2PGI0H8m3ZOkipVVqhw6z3eMunxBnJ+Yq8YZ5TeJmtQXzo/Cns6vdGwKNkj0hDh0+aP0DrExtdLXOu5DsWwEOmDpjK6V8gfE9SZ8S9VDlz/4YNDLiBS3UFWWB3zxDXdFYWttafcIf7QAxAA1YAW6s+s6VzhlYoyPG1JJnltZc7RXb0dGuVisJIgP/+Imjtm3bFtu5a7uvLJghhtTWVUstDamrvc82bdoom2OXWlZSoKq15cuX+Twfm4Vt27bNe4ebNm32ArM7MuNVqI+N6iGygpSmBLiwHdinitZOd3rr1s3qDW6xjZs2qHUfsYYmtdC5s3wCNwwBBAY7yPTDMWwFRK9MEknnSLHWkyds04YNvt2Sg0+dp7JyNSK56lqBrrPVtm7bJMm0QwBnWU2T4pVEVdkBMZPXTHRzfeKkesQCSnVNhSRSnaRPpRodahwJWGqzZjcLNN22Y+dW27x5g/iyU3ZojypdFay6ZseagaE+ywk4vJk9pHgZemlorLXGpnoH+W49s2cvK2T7fOVGZXVYwdHV3aG8tqvUDBAnZAtWS+Iz/sdANR9wyLhZsnv3bjUC9gULkorhjaCfpkbnZLwjFrFhEJ1cgGqMPlQgqz5ZzsHELJtlEI4dXxhEpMUyLoTBXCVJQEtjHo6R9+VSP83NMzyOWTJYsXnQ+xjP9JjYBoktJpFog0P9koQ7XZQzER3sn6z3KjG8K6sqJT161RrDCDg7AC5fscxbsW+vpDIBLj5ngoSic4FaxFBlAzXGrbC9aCSsIqBDwUZn7CePFKBCUQ7sQsN0FJuEhF1z5triJYtc+iIxSQsV1NBY7w2qpq5SDWpQPOpTXstlf871Cq6oKFM+ahW2yuPLZNMuGRcumm8LFs5z4BE/9qGP32VYA8Za+XJrUQ8Zs0JF8PJRh4Sl59wys1kNCdMBO5gBZzUIqWls0FqfjWBYQ+ATr2tkvNMDZt6yReodHlKnED1HKYtRHMR/4SoinUxmvJ/jACk+AIvRXgYEZVcV8CvxFxwOHjrkNkJsoGfECDBJy/DpDNkXtAgyFeyxYbVeRrTD1ATjPNgwGOrMP5bLIPU3UsQIpEFPT7tt37HN7R+YhLTEMKf3AkiQYDiYyEQ06hl/4maqRNF43N4glB+mmOgZ4UcYwrP8hpKSt127djloZrTMsJIyxoiC+kcFM3nNM9hB5IPKoofMOeUM9gr2j2ITL7O5YBhTaaTvWdJ97DLPt1QSCxCZV4G/OMpFx6hMlcXsAbYmqr9WjYLd//zV/MAeqdChiCeoP5YPwTNmQMJYnw/PKF0+J+O93Igv8PzQ4cNIDF9pQQPmWfjqPEvKkQjgEWc+otUNeoZTZcIrS6RTZw6TtHTlGbnmhQYYA5PotYWsCGNuGOrKPcLz3EHPUyFjxIQsBWfyVZXkzM+6OsCOQ+1hb7FrXQA4cSq3eoCoYSSSCEZyTuv0pNWqnUG64Bl/NpLGgIW8kyj5Yfiht7fHJRmrT9mfC4kQtkAKgKFBuJ2n/DFWReLe69S5Ayoi7BlUHrnDjowlPQBA7SDdMSeQEA4GB3BYvUCPF+dA1p+Hp3yUKSoz5cNeorEEbaKU1LC9wUb8caOcLMJ2yg7YlBYT9YCX/NBLZrEkhB2GWSNrVVfkXH/CQDGw/FQuK+HCZ+UAVmKqwPJNMvAfJWKfnGDERCKDYzTx/pnj4tsyxUGcSRG5t36oWEAVgA9DdfBTKiVaoaDrAEJKyEPBrvAGoooPoAvXAAyjm+0kWc4cUgoVHFegV7CuiTNIKOIMeXDwYjTH+fDnxxNhaFikFYOetNnykR42jePDpPE5ODU/McHzkVKBU+cAKgaW44L7PKriusQSsFKV9ZYsO88pnTEikckd6U5048NMpOJ7E130fEDFOFBBITUqhc3cVKG6TyX5iLj8sQOocFQXYVSXug77KDDZzJAF42b+jKs2nqFnRY8W5gKUAAIHla796xDErRYr4RCusbblh9QiXV6oRf3jkFSxGgzLh1BXYa4zh9RWWCQ0Uo3q45pjzLsPy40nynImNzX6EIB1YWk8c8bYRWUxtUGFUtFeufJXPQkgUltej6p4erQ4Klj3AVwAHWEkvBUPbx0LER4n0ppLP1UYn2TWMTgkESoJYLL2jGEY5gaJAxAKFKwiiIEmBxBRWb5TjdLDaCadANqwKjdIr5zyRQMh5bESXyp0yQDLoSIex861ojtV1oQKAzBM1rIBSP9A2iuZCVsmhansnp5+gUjPMEkswCGpGA1HwrCUh5FspkLYq525O4zyjCSdAwxpp/gBLM8CSlk8Hh/f5ZGytQR716f4MKVApR4SR8bisM9c+uk5rlkmhITDjzk9pq6YHB5dPatwlOtSpA/Bxrpw5PkZTZurIK3G7mCwjhhfYGDIgh4fG3nw9vHsWS2qTLMTJ0/aieMnfPnIzJkzBbSCv83D62ZIiyF1ClhYyMg8y2pQWRWVZbZmzXIfHgirTGN7SnxRxQdbyjMQVKnAjSRiwpt5T0FQOQOOce71y4k86NAwPMKk8batW32IZMHChYoPtRx6drwkEj95ISnYWPwqq96AL6iNdQFJ5YklFKWKj15DOvp3nAUE5uCOHjkucA0KZD3+yQ82BhngUyOHw8eOmEDuHxiStCrYEZ3z1jLPuh0kA5/7SC429kAKugNIqD4Pw6oEJB77xdPYgh9SEKl3srXT+PDS0BDDG7KjkKSKKzSGMZWKqmMhIUuyy+SOHDumfKpRsLpBwPK16pT9EqNLClhUSSBaTQCUHwFVBLCkKhHVwror3iBmkLW3b8CBhTob6A9g4gNGfDQSddba1mG80cwr+CtWrrK111xrVdU1NnvuPP8UCst3fK5SgEIi4jB9iIdJYJ4HrByZiO7tGxKAj9vuPfsFrlb50aUf9hmD/fsPOtCRpMRBPwBwsqyIJUa8GY36hVgexHDNpUiXFLB8TEytmLEZhg0YVqCLTosO4z+hMrBfUDGoJCaP8edFU1QcPT5WlTI8wGtifJOGMR1GwBlgRB1yVNTG10ira6p9NBoVFw8nhAo3f6P5QLTUBftor46sDGWMjYn1kwIQA8e86kU4lrGwAJI9IwiHHYfB7gOkQnhDY6MDmMHJsG5M5XB1e+nRpaUKRWGMiS6/QKZKZvAUZIVKCoALLumDfbz2jlRra2+XemrzgcD58xbo2RIf0D1x8oQPNbA9UhjBZ3BTT7gAxHbKqbcZlo8AAsDFGBO2V0dnp+8kwxvOLExk9JvVB6TP6gFsOPaSwD9sTVTpO8jwXiFgBzSoPPLESxpMUZGuv6yia4jB0kuRLilgYaegjuA+o9a+fkuVyKtae/ftlQHc6RXPPUaOMZj5mBMrKbo62q2bNWGSTHzpoqGuzrp03d7a6n4Y5rzxjGGKkc+aLSYPfAJBAPNRaKXHKDVSizk4Vj4cPXrE+vp6ra3tpE8DAQQmuf2LFEq7aUaDpCpDCmFPBuY+V1+1WgBb7kBmEhjjPawYlfQSiOMpHcqAVL4U6RKTWKE/gnGt2lWXn7etc16xvBnd09vj6s2X3ZapxXsll1hdTZW1t7dFUzQCUXnKGhvqfCUrKquOCWGmcwREvvoQfw2MiV16dPTKeB4VhaqkwlnWU1lZ4RPNgGjBgnnu+OQK8TAFxcQzE9KJJNM/eVfbSFUkJcuDWLvGpDlx0wvlWjLS1TJzljynIl+SdMkAC1nCVtgZtWi+kE8LR3KgDtkIjXk1vja2/t23JUUOGx83Ym8EpmP4MFOlwASAaiS9WLzHGigkGV8MqxXwCBdgKzAJUPgjrVhzNTTYby+9+KLt2rnTF9ARkre6WcHQLLXW3d3peziw1IZRLdZY8TwfZjpwYI/iKZGdVmW7du+yN99607Zt3+bSld4fkvaIpB7S7qSkXokSTbKiQccq5YsVDZT+UqMLvKPf+ZDsHqlB7By66NhQGNHYXPSoWFXKvBoTyQ319bZsyRJf4McaKwwaXptn9n5GU6NLJyaUWWc1f578ZjRJ1TE9wwqHEgEB6BR8UR3PsWaeFaKAiv0hkFj+ppDAzIsiGP+czxDIWAbMUhvAxEJHVm82tzT7qlOfVJZkwvZiYzjUKyq1nPGx8qSPYzUqf+zpxVIgnzT3JuV934tDcbWP+4uIE7nRZTO8OxptGnzJDJDCXvZXB0yoIZbVMogYL/pn8jhWN8CCFwgAFK9zxYOabvDTWxSgAAsqE0N8zEAOthRDgjk9h3nDfVZUvv/+ZmtpnmlLli7xexjXLLchbSaLWaaDcY4hTj4APPd8HbnSxD7kOfIMATLACEhRfyzb3rx5s1199Rpfn0ZeuMc6s+yw8nIR2jN8mOoAqYA1PAqsrAMLo5eR3gAspjmCxIqAJSaQ5MUgUqaC2EvBX2OXZAFkVCIUG7r8UnwfA3Ku6KCjg8orPvTyyiTl+JIpdhOdACpSQdyWqpXUS0tVATomrnt7BvwFVQCMIY5kZJEhIOWaNP2oPJGv+GNO9FoZPyNi7hMwLKlh6EL6QRKMc+xEBkNRr8RNuoTDuE8yse21eIGJXnGE6Hhg2nnrXsIG/JZj2YwDq0LAKgdYFTGw1KqG+y2TBlioQxjBjD4PE4VHR2xOY2cXjkLxIMGdClSByEdoT2MUfCH5F93i1O+Fh/wHEKDGOI7FhWQLi+04uq8OOBbLxQOWpB/hJFAcrycRgZpLABXf4ACNPgThGUtTf9ifx49L8hDKOu6hC0IhZ+GM1BE04cts4dqFTUkiklgVklgyAZBYbG8+UkgHYKX7g8QaQQUwjSBgCZruiNrLenEKOE0Xj2IIYXMGYEVH92XwViZBXg0zyZRUnTBVK2CVFQFLEiuLxPIFbdgBEbD4i7AEwKaBdeVQgA+OM0DFEWDFFAHLVWGlgFVbDKwhAUsGJDaWpFYAFjYIohxwEUEMrjjKsain6fKmWDaNqcCg4gMGGKxGFUpiCVgpAStRrk6Tq8KRQXWBJgILwz30/uIdR4KuJbJpUF1JFOqdWo+BFSichYWOMbDKKiNglSCxAJZUYQEbC2BZTiYZY1lBYimEIomjh6aBdSXReGCJ3ENXdF6ElJGSyMaS8Q6wkhGwZNYTMgrogQMaw5Ef6U9305C6Eok6d4ct5PZQ5EbPGTrRkS6sXweSxBpQBzAjoTWgXuGAhBQDjKhCjDSk1hjM/HdCBNN0+RP21XgCEQiihBUksXIFJBavf9VYqrxatxl5RxWOyFjPqmcoIz491O/g4lHmysJYXlim4mudEmE5xzRdARThKYiRcOGCy30kdkZkNMmDN6BTZVWWLKt0lcgafwFLvULmpPIZny/MDg8ZM/w+ux9JrVg+MUcXBvym6UqguN5dYjmgRrGmI/aVJBXLrpPsWlNpiZR6gwlWiTiwhhVWKg+pJTCNCFSFHG/fst9mMOLRfvG0yTSorjCaoAb9ym1xQMF7meXSYqzpV08QUEk9YneVFEYyEmYExwEwOSZ3fcKUyU/mrCLseoTj+4jTdPmS17oqO6p9J7fZOTqwShxUvFcZXnULoOKJkvxIdtS+D+CSc5QWHbnJqZ/7yTRdMaTKp8odIBPrXp6SWuEmx7FzAQvzy59ycpkUib9I+40R0myi3zRd5lRc4cXAitEW34/OfXmVSyxfpgWcwmw9aNKRSWiCFq+5HlOCxQlM0+VLICPU/1iNcxY7KMJHdBne3D4FWLxIwI1wztGjHgcuaOx6mq5ECgMOTg4IXTleYl+z/x8KGKGtNKasPgAAAABJRU5ErkJggg==;" vertex="1" parent="0_kUKvZpLYJWTEZ_aIxn-15">
          <mxGeometry x="19.99736150568151" y="67.00277166193177" width="150" height="236" as="geometry" />
        </mxCell>
        <mxCell id="0_kUKvZpLYJWTEZ_aIxn-18" value="" style="edgeStyle=orthogonalEdgeStyle;rounded=0;orthogonalLoop=1;jettySize=auto;html=1;strokeWidth=3;" edge="1" parent="1" source="KiE-p9byAmrBn2ZulwZ0-4" target="0_kUKvZpLYJWTEZ_aIxn-17">
          <mxGeometry relative="1" as="geometry" />
        </mxCell>
        <mxCell id="0_kUKvZpLYJWTEZ_aIxn-19" value="" style="shape=flexArrow;endArrow=classic;html=1;rounded=0;entryX=1;entryY=0.5;entryDx=0;entryDy=0;fillColor=#008a00;strokeColor=#005700;" edge="1" parent="1" target="0_kUKvZpLYJWTEZ_aIxn-1">
          <mxGeometry width="50" height="50" relative="1" as="geometry">
            <mxPoint x="779" y="490" as="sourcePoint" />
            <mxPoint x="992" y="419" as="targetPoint" />
          </mxGeometry>
        </mxCell>
      </root>
    </mxGraphModel>
  </diagram>
</mxfile>
